<svg width="183" height="43" viewBox="0 0 183 43" fill="none" xmlns="http://www.w3.org/2000/svg">
<path d="M20.4404 28.4281C17.6472 28.4281 14.8539 28.4169 12.0607 28.4394C11.4465 28.445 10.9977 28.2591 10.6847 27.769C10.1828 26.9748 9.66901 26.1805 9.17887 25.3806C8.9958 25.0764 9.13162 24.851 9.47414 24.8172C9.84617 24.7778 10.23 24.7778 10.6021 24.8285C10.7497 24.8454 10.9091 25.0144 11.0036 25.1552C11.3698 25.6848 11.5883 26.4283 12.0961 26.71C12.5863 26.9804 13.3599 26.7945 14.0095 26.7945C18.7751 26.7945 23.5408 26.7889 28.3005 26.8058C28.7139 26.8058 28.9678 26.6987 29.1509 26.3495C29.3516 25.972 29.6115 25.6228 29.8064 25.2397C29.9717 24.913 30.1961 24.7722 30.5741 24.8003C30.8457 24.8229 31.1233 24.7834 31.3949 24.8172C31.7433 24.8623 31.8851 25.082 31.6961 25.3806C31.1764 26.2255 30.639 27.0536 30.0957 27.8873C29.83 28.2986 29.4284 28.445 28.9206 28.4394C26.0978 28.4169 23.2691 28.4281 20.4404 28.4281Z" fill="black"/>
<path d="M16.803 18.6544C16.7794 18.615 16.7558 18.57 16.7263 18.5305C16.5432 18.2207 16.3601 17.9052 16.1948 17.5841C15.9468 17.1109 15.8936 16.649 16.242 16.1589C16.5609 15.7083 16.3838 15.1055 15.929 14.7844C15.5039 14.4859 15.0255 14.5704 14.6594 15.021C13.8799 15.9787 13.8149 17.2743 14.4881 18.4066C14.5118 18.446 14.5354 18.4911 14.5649 18.5305C14.748 18.8403 14.931 19.1558 15.0964 19.4769C15.3444 19.9501 15.3976 20.412 15.0491 20.9021C14.7303 21.3528 14.9074 21.9555 15.3621 22.2766C15.7873 22.5752 16.2657 22.4907 16.6318 22.04C17.4113 21.0824 17.4703 19.7924 16.803 18.6544Z" fill="black"/>
<path d="M21.5384 18.6544C21.5148 18.615 21.4912 18.57 21.4616 18.5305C21.2786 18.2207 21.0955 17.9052 20.9301 17.5841C20.6821 17.1109 20.629 16.649 20.9774 16.1589C21.2963 15.7083 21.1191 15.1055 20.6644 14.7844C20.2392 14.4859 19.7609 14.5704 19.3947 15.021C18.6152 15.9787 18.5503 17.2743 19.2235 18.4066C19.2471 18.446 19.2707 18.4911 19.3003 18.5305C19.4833 18.8403 19.6664 19.1558 19.8317 19.4769C20.0798 19.9501 20.1329 20.412 19.7845 20.9021C19.4656 21.3528 19.6428 21.9555 20.0975 22.2766C20.5227 22.5752 21.001 22.4907 21.3671 22.04C22.1466 21.0824 22.2057 19.7924 21.5384 18.6544Z" fill="black"/>
<path d="M26.2694 18.6544C26.2457 18.615 26.2221 18.57 26.1926 18.5305C26.0095 18.2207 25.8264 17.9052 25.6611 17.5841C25.4131 17.1109 25.3599 16.649 25.7083 16.1589C26.0272 15.7083 25.8501 15.1055 25.3954 14.7844C24.9702 14.4859 24.4918 14.5704 24.1257 15.021C23.3462 15.9787 23.2812 17.2743 23.9544 18.4066C23.9781 18.446 24.0017 18.4911 24.0312 18.5305C24.2143 18.8403 24.3973 19.1558 24.5627 19.4769C24.8107 19.9501 24.8639 20.412 24.5155 20.9021C24.1966 21.3528 24.3737 21.9555 24.8284 22.2766C25.2536 22.5752 25.732 22.4907 26.0981 22.04C26.8835 21.0824 26.9426 19.7924 26.2694 18.6544Z" fill="black"/>
<path d="M36.2671 1C37.5486 6.53746 38.7592 11.9848 39.2139 17.6518C39.645 23.1104 39.4737 28.6141 38.7001 34.0389C38.3399 36.5456 37.8556 39.0299 37.2474 41.4916" stroke="black" stroke-width="2" stroke-miterlimit="10"/>
<path d="M182 1.54639H1V41.4972H182V1.54639Z" stroke="black" stroke-width="2" stroke-miterlimit="10"/>
<path d="M56.4398 26.3434C55.2292 28.4446 52.7076 28.7263 52.0344 28.8051C51.5797 28.8614 51.1014 28.9009 50.623 28.9009C47.8475 28.9009 46.2767 28.0108 45.3436 27.2898C44.9657 26.9856 44.7885 26.7997 44.2334 26.1744L46.8908 24.5858C46.9499 24.6422 47.2274 24.9464 47.505 25.1548C48.4203 25.8758 49.7667 26.2702 50.936 26.2702C51.0955 26.2702 51.5738 26.2702 52.0285 26.135C52.1289 26.1181 53.5167 25.735 53.5167 24.7154C53.5167 23.4874 51.6506 23.4479 50.3986 23.2789C49.7431 23.2057 49.0699 23.0874 48.4144 22.9409C47.4046 22.6931 46.4715 22.3325 45.7747 21.5383C45.633 21.3862 45.3554 21.0482 45.1783 20.5524C45.1192 20.3609 45.0011 19.9272 45.0011 19.3807C45.0011 19.2681 45.0188 18.8343 45.0779 18.4513C45.2373 17.6006 45.6153 16.919 46.2885 16.3106C46.9853 15.6853 48.3495 14.908 50.6526 14.908C51.5088 14.908 53.369 15.0037 55.2765 16.2318C55.7548 16.536 56.0324 16.7613 56.8237 17.426L54.243 19.1892C53.4694 18.4682 52.932 18.0513 51.8809 17.7302C51.7037 17.6908 51.1663 17.5387 50.5699 17.5387C49.1408 17.5387 48.4853 18.333 48.4853 18.9582C48.4853 19.3188 48.6861 19.5666 48.7805 19.6568C49.2589 20.1469 50.0325 20.13 51.3376 20.3215C52.1289 20.4342 52.9025 20.5862 53.682 20.7552C54.1781 20.851 55.9851 21.189 56.6997 22.817C56.8001 23.0649 56.9772 23.5719 56.9772 24.2535C56.9949 24.6422 56.9595 25.4365 56.4398 26.3434Z" fill="black"/>
<path d="M59.0615 28.5972V15.2352H69.4196V17.8096H62.5516V20.2488H68.959V22.7837H62.5516V25.9609H70.0515V28.5916H59.0615V28.5972Z" fill="black"/>
<path d="M80.3744 28.5972L77.5753 23.8259H75.3903V28.5972H71.8589V15.2352H78.1717C78.5674 15.2352 78.9631 15.2352 79.3646 15.2521C80.0024 15.2916 82.2228 15.4211 83.3153 17.3364C83.5161 17.6969 83.8704 18.4743 83.8704 19.5672C83.8704 21.06 83.2563 21.8599 82.7779 22.2937C82.5771 22.4852 82.3409 22.6542 82.1224 22.7837C81.8626 22.9189 81.5673 23.0485 80.9886 23.2569L84.2247 28.5972H80.3744ZM78.3489 17.7138H75.3726V21.3473H78.2721C78.4139 21.3473 78.8095 21.3473 79.2052 21.2121C80.339 20.8515 80.3744 19.8319 80.3744 19.4883C80.3744 17.7533 78.9631 17.7138 78.3489 17.7138Z" fill="black"/>
<path d="M92.9349 28.5972H89.3621L84.561 15.2352H88.2932L91.1928 24.7385L94.0687 15.2352H97.8009L92.9349 28.5972Z" fill="black"/>
<path d="M99.1475 28.5972V15.2352H102.638V28.5972H99.1475Z" fill="black"/>
<path d="M111.348 17.8659V28.5972H107.817V17.8659H104.167V15.2352H114.98V17.8659H111.348Z" fill="black"/>
<path d="M125.025 28.5972L122.226 23.8259H120.041V28.5972H116.509V15.2352H122.822C123.218 15.2352 123.613 15.2352 124.015 15.2521C124.653 15.2916 126.873 15.4211 127.966 17.3364C128.167 17.6969 128.521 18.4743 128.521 19.5672C128.521 21.06 127.907 21.8599 127.428 22.2937C127.228 22.4852 126.991 22.6542 126.773 22.7837C126.513 22.9189 126.218 23.0485 125.639 23.2569L128.875 28.5972H125.025ZM122.999 17.7138H120.023V21.3473H122.923C123.064 21.3473 123.46 21.3473 123.856 21.2121C124.989 20.8515 125.025 19.8319 125.025 19.4883C125.025 17.7533 123.613 17.7138 122.999 17.7138Z" fill="black"/>
<path d="M141.436 27.5946C140.68 28.1805 139.334 28.9973 137.031 28.9973C136.175 28.9973 133.854 28.8621 132.07 27.0876C130.186 25.1949 130.068 22.6599 130.068 21.8656C130.068 21.1671 130.169 19.2743 131.397 17.5506C132.112 16.5479 133.736 14.8241 136.995 14.8241C139.653 14.8241 141.259 15.962 141.997 16.6774C143.35 18.0012 144.1 20.1813 144.1 22.0177C144.094 24.0569 143.161 26.2539 141.436 27.5946ZM139.688 18.8687C139.511 18.6434 139.092 18.1702 138.336 17.866C137.739 17.6407 137.226 17.6182 136.984 17.6182C136.21 17.6182 135.673 17.866 135.419 17.9956C134.007 18.7505 133.511 20.401 133.511 21.8206C133.511 23.6401 134.108 24.6203 134.68 25.2118C135.295 25.837 136.127 26.175 137.043 26.175C137.497 26.175 138.59 26.0624 139.464 25.1723C140.255 24.3555 140.533 23.2965 140.574 22.2374C140.639 20.5531 140.108 19.4152 139.688 18.8687Z" fill="black"/>
<path d="M154.611 28.5972L149.532 20.3277L149.65 28.5972H146.278V15.2352H149.709L154.829 23.6231L154.688 15.2352H158.042V28.5972H154.611Z" fill="black"/>
<path d="M160.741 28.5972V15.2352H164.231V28.5972H160.741Z" fill="black"/>
<path d="M178.244 26.8002C177.606 27.4818 175.864 28.9972 173.124 28.9972C172.628 28.9972 171.477 28.9408 170.266 28.4282C166.575 26.8397 166.398 22.9584 166.398 21.8993C166.398 21.0825 166.498 18.9869 168.105 17.128C168.742 16.3731 170.325 14.8184 173.183 14.8184C175.067 14.8184 176.892 15.5563 178.126 16.9027C178.64 17.4716 178.959 18.0575 179.1 18.2828L176.343 19.5897C176.142 19.2123 176.006 19.0038 175.888 18.8517C175.628 18.4912 174.778 17.5617 173.349 17.5617C172.953 17.5617 172.02 17.635 171.223 18.356C170.65 18.8686 169.894 19.984 169.894 21.8205C169.894 21.9895 169.894 22.3105 169.953 22.7274C170.189 24.5638 171.022 25.3976 171.801 25.8144C172.061 25.9665 172.593 26.1918 173.349 26.1918C175.315 26.1918 176.065 24.7328 176.384 24.2258L179.16 25.5722C178.74 26.1749 178.445 26.5749 178.244 26.8002Z" fill="black"/>
</svg>
