<svg width="344" height="162" viewBox="0 0 344 162" fill="none" xmlns="http://www.w3.org/2000/svg">
<path d="M128.814 55.3121C123.217 65.3735 111.602 66.7813 108.374 67.1725L108.309 67.1804C106.193 67.452 103.966 67.6421 101.74 67.6421C88.8215 67.6421 81.5102 63.3511 77.1674 59.8748C75.4083 58.4082 74.5837 57.512 72 54.4974L84.3687 46.8387C84.4219 46.8913 84.5132 46.9886 84.6352 47.1186C85.1436 47.6606 86.1854 48.7713 87.2273 49.5817C91.4876 53.058 97.7544 54.9591 103.197 54.9591C103.939 54.9591 106.165 54.9591 108.282 54.3073C108.749 54.2258 115.208 52.379 115.208 47.4633C115.208 42.282 108.556 41.4895 102.989 40.8263C102.195 40.7317 101.423 40.6397 100.695 40.5379C97.6445 40.1849 94.5111 39.6145 91.4601 38.9084C86.76 37.7134 82.4172 35.9753 79.1739 32.146C78.5142 31.4127 77.2223 29.7832 76.3978 27.3932C76.1229 26.4698 75.5732 24.3786 75.5732 21.7443C75.5732 21.2011 75.6556 19.1099 75.9305 17.2631C76.6726 13.1622 78.4317 9.876 81.5651 6.94288C84.8085 3.92829 91.1578 0.18042 101.877 0.18042C105.863 0.18042 114.521 0.642115 123.399 6.56266C125.625 8.02922 126.917 9.11556 130.6 12.3203L118.589 20.8209C114.988 17.3446 112.487 15.3349 107.594 13.7868C107.485 13.7615 107.345 13.7265 107.179 13.685C106.099 13.4144 103.899 12.8634 101.493 12.8634C94.8409 12.8634 91.79 16.6928 91.79 19.7074C91.79 21.4455 92.7245 22.6405 93.1643 23.075C94.9283 24.9472 97.5551 25.2848 101.592 25.8036C102.65 25.9396 103.804 26.088 105.066 26.2797C108.749 26.8229 112.349 27.5562 115.978 28.3709L116.027 28.3809C118.405 28.8559 126.721 30.5175 130.023 38.3109C130.49 39.5059 131.315 41.9502 131.315 45.2363C131.397 47.1103 131.232 50.9396 128.814 55.3121Z" fill="#FD7C43"/>
<path d="M128.814 55.3121C123.217 65.3735 111.602 66.7813 108.374 67.1725L108.309 67.1804C106.193 67.452 103.966 67.6421 101.74 67.6421C88.8215 67.6421 81.5102 63.3511 77.1674 59.8748C75.4083 58.4082 74.5837 57.512 72 54.4974L84.3687 46.8387C84.4219 46.8913 84.5132 46.9886 84.6352 47.1186C85.1436 47.6606 86.1854 48.7713 87.2273 49.5817C91.4876 53.058 97.7544 54.9591 103.197 54.9591C103.939 54.9591 106.165 54.9591 108.282 54.3073C108.749 54.2258 115.208 52.379 115.208 47.4633C115.208 42.282 108.556 41.4895 102.989 40.8263C102.195 40.7317 101.423 40.6397 100.695 40.5379C97.6445 40.1849 94.5111 39.6145 91.4601 38.9084C86.76 37.7134 82.4172 35.9753 79.1739 32.146C78.5142 31.4127 77.2223 29.7832 76.3978 27.3932C76.1229 26.4698 75.5732 24.3786 75.5732 21.7443C75.5732 21.2011 75.6556 19.1099 75.9305 17.2631C76.6726 13.1622 78.4317 9.876 81.5651 6.94288C84.8085 3.92829 91.1578 0.18042 101.877 0.18042C105.863 0.18042 114.521 0.642115 123.399 6.56266C125.625 8.02922 126.917 9.11556 130.6 12.3203L118.589 20.8209C114.988 17.3446 112.487 15.3349 107.594 13.7868C107.485 13.7615 107.345 13.7265 107.179 13.685C106.099 13.4144 103.899 12.8634 101.493 12.8634C94.8409 12.8634 91.79 16.6928 91.79 19.7074C91.79 21.4455 92.7245 22.6405 93.1643 23.075C94.9283 24.9472 97.5551 25.2848 101.592 25.8036C102.65 25.9396 103.804 26.088 105.066 26.2797C108.749 26.8229 112.349 27.5562 115.978 28.3709L116.027 28.3809C118.405 28.8559 126.721 30.5175 130.023 38.3109C130.49 39.5059 131.315 41.9502 131.315 45.2363C131.397 47.1103 131.232 50.9396 128.814 55.3121Z" stroke="black"/>
<path d="M141.017 66.1513V1.75854L189.228 1.75854V14.17L157.261 14.17V25.9296L187.084 25.9296V38.1509L157.261 38.1509V53.4683L192.169 53.4683V66.1513L141.017 66.1513Z" fill="#FD7C43"/>
<path d="M141.017 66.1513V1.75854L189.228 1.75854V14.17L157.261 14.17V25.9296L187.084 25.9296V38.1509L157.261 38.1509V53.4683L192.169 53.4683V66.1513L141.017 66.1513Z" stroke="black"/>
<path d="M240.213 66.1784L227.185 43.1752L217.015 43.1752V66.1784H200.578V1.75854L229.961 1.75854C231.802 1.75854 233.644 1.75854 235.513 1.84002L235.55 1.84238C238.566 2.0354 248.837 2.69265 253.901 11.8887C254.836 13.6268 256.485 17.3747 256.485 22.6434C256.485 29.8404 253.626 33.6969 251.4 35.7881C250.465 36.7115 249.366 37.5262 248.349 38.1509C247.14 38.8027 245.765 39.4273 243.072 40.4322L258.134 66.1784L240.213 66.1784ZM230.785 13.7083L216.933 13.7083V31.2255H230.428C231.088 31.2255 232.929 31.2255 234.771 30.5737C240.048 28.8355 240.213 23.9199 240.213 22.2632C240.213 13.8984 233.644 13.7083 230.785 13.7083Z" fill="#FD7C43"/>
<path d="M240.213 66.1784L227.185 43.1752L217.015 43.1752V66.1784H200.578V1.75854L229.961 1.75854C231.802 1.75854 233.644 1.75854 235.513 1.84002L235.55 1.84238C238.566 2.0354 248.837 2.69265 253.901 11.8887C254.836 13.6268 256.485 17.3747 256.485 22.6434C256.485 29.8404 253.626 33.6969 251.4 35.7881C250.465 36.7115 249.366 37.5262 248.349 38.1509C247.14 38.8027 245.765 39.4273 243.072 40.4322L258.134 66.1784L240.213 66.1784ZM230.785 13.7083L216.933 13.7083V31.2255H230.428C231.088 31.2255 232.929 31.2255 234.771 30.5737C240.048 28.8355 240.213 23.9199 240.213 22.2632C240.213 13.8984 233.644 13.7083 230.785 13.7083Z" stroke="black"/>
<path d="M298.677 66.1784H282.048L259.701 1.75854L277.073 1.75854L290.568 47.5749L303.954 1.75854L321.325 1.75854L298.677 66.1784Z" fill="#FD7C43"/>
<path d="M298.677 66.1784H282.048L259.701 1.75854L277.073 1.75854L290.568 47.5749L303.954 1.75854L321.325 1.75854L298.677 66.1784Z" stroke="black"/>
<path d="M327.591 66.1784V1.75854L343.835 1.75854V66.1784H327.591Z" fill="#FD7C43"/>
<path d="M327.591 66.1784V1.75854L343.835 1.75854V66.1784H327.591Z" stroke="black"/>
<path d="M33.2059 109.403L33.2059 160H16.876L16.876 109.403H0L0 97L50 97V109.403L33.2059 109.403Z" fill="#FD7C43"/>
<path d="M33.2059 109.403L33.2059 160H16.876L16.876 109.403H0L0 97L50 97V109.403L33.2059 109.403Z" stroke="black"/>
<path d="M95.5635 160L82.8873 137.504H72.9924L72.9924 160H57L57 97H85.5883C87.3801 97 89.1719 97 90.9904 97.0797L91.0264 97.082C93.9611 97.2708 103.954 97.9135 108.882 106.907C109.791 108.607 111.395 112.272 111.395 117.425C111.395 124.463 108.614 128.234 106.448 130.28C105.539 131.183 104.469 131.979 103.479 132.59C102.303 133.228 100.966 133.839 98.3448 134.821L113 160H95.5635ZM86.3906 108.686H72.9121V125.817H86.043C86.6848 125.817 88.4766 125.817 90.2684 125.18C95.403 123.48 95.5635 118.673 95.5635 117.053C95.5635 108.872 89.1719 108.686 86.3906 108.686Z" fill="#FD7C43"/>
<path d="M95.5635 160L82.8873 137.504H72.9924L72.9924 160H57L57 97H85.5883C87.3801 97 89.1719 97 90.9904 97.0797L91.0264 97.082C93.9611 97.2708 103.954 97.9135 108.882 106.907C109.791 108.607 111.395 112.272 111.395 117.425C111.395 124.463 108.614 128.234 106.448 130.28C105.539 131.183 104.469 131.979 103.479 132.59C102.303 133.228 100.966 133.839 98.3448 134.821L113 160H95.5635ZM86.3906 108.686H72.9121V125.817H86.043C86.6848 125.817 88.4766 125.817 90.2684 125.18C95.403 123.48 95.5635 118.673 95.5635 117.053C95.5635 108.872 89.1719 108.686 86.3906 108.686Z" stroke="black"/>
<path d="M170.662 155.369C167.16 158.139 160.923 162 150.254 162C146.287 162 135.536 161.361 127.274 152.973C118.547 144.025 118 132.042 118 128.287C118 124.985 118.465 116.037 124.155 107.889C127.465 103.149 134.989 95 150.09 95C162.4 95 169.841 100.379 173.261 103.761C179.526 110.019 183 120.325 183 129.006C182.973 138.646 178.65 149.031 170.662 155.369ZM162.564 114.12C161.744 113.055 159.801 110.818 156.3 109.38C153.537 108.315 151.157 108.208 150.035 108.208C146.451 108.208 143.962 109.38 142.785 109.992C136.247 113.561 133.949 121.363 133.949 128.074C133.949 136.675 136.712 141.309 139.366 144.105C142.211 147.061 146.068 148.659 150.308 148.659C152.415 148.659 157.476 148.126 161.525 143.919C165.191 140.057 166.476 135.051 166.668 130.045C166.969 122.082 164.507 116.703 162.564 114.12Z" fill="#FD7C43"/>
<path d="M170.662 155.369C167.16 158.139 160.923 162 150.254 162C146.287 162 135.536 161.361 127.274 152.973C118.547 144.025 118 132.042 118 128.287C118 124.985 118.465 116.037 124.155 107.889C127.465 103.149 134.989 95 150.09 95C162.4 95 169.841 100.379 173.261 103.761C179.526 110.019 183 120.325 183 129.006C182.973 138.646 178.65 149.031 170.662 155.369ZM162.564 114.12C161.744 113.055 159.801 110.818 156.3 109.38C153.537 108.315 151.157 108.208 150.035 108.208C146.451 108.208 143.962 109.38 142.785 109.992C136.247 113.561 133.949 121.363 133.949 128.074C133.949 136.675 136.712 141.309 139.366 144.105C142.211 147.061 146.068 148.659 150.308 148.659C152.415 148.659 157.476 148.126 161.525 143.919C165.191 140.057 166.476 135.051 166.668 130.045C166.969 122.082 164.507 116.703 162.564 114.12Z" stroke="black"/>
<path d="M231.25 160L207.937 121.01L208.479 160H193V97H208.75L232.253 136.548L231.602 97L247 97V160H231.25Z" fill="#FD7C43"/>
<path d="M231.25 160L207.937 121.01L208.479 160H193V97H208.75L232.253 136.548L231.602 97L247 97V160H231.25Z" stroke="black"/>
<path d="M259 160V97H275V160H259Z" fill="#FD7C43"/>
<path d="M259 160V97H275V160H259Z" stroke="black"/>
<path d="M339.768 151.619C336.82 154.839 328.765 162 316.097 162C313.804 162 308.48 161.734 302.883 159.311C285.819 151.805 285 133.464 285 128.46C285 124.6 285.464 114.698 292.89 105.914C295.839 102.347 303.156 95 316.37 95C325.08 95 333.516 98.4871 339.222 104.849C341.214 107.104 342.573 109.415 343.346 110.73C343.494 110.983 343.621 111.199 343.727 111.371L330.977 117.546C330.049 115.763 329.421 114.778 328.875 114.059C327.673 112.356 323.742 107.963 317.135 107.963C315.305 107.963 310.992 108.309 307.306 111.717C304.658 114.139 301.163 119.41 301.163 128.087C301.163 128.886 301.163 130.403 301.436 132.373C302.528 141.051 306.378 144.99 309.982 146.96C311.183 147.679 313.64 148.744 317.135 148.744C325.625 148.744 329.21 142.731 330.848 139.985C330.964 139.79 331.07 139.612 331.168 139.454L344 145.816C342.062 148.664 340.696 150.554 339.768 151.619Z" fill="#FD7C43"/>
<path d="M339.768 151.619C336.82 154.839 328.765 162 316.097 162C313.804 162 308.48 161.734 302.883 159.311C285.819 151.805 285 133.464 285 128.46C285 124.6 285.464 114.698 292.89 105.914C295.839 102.347 303.156 95 316.37 95C325.08 95 333.516 98.4871 339.222 104.849C341.214 107.104 342.573 109.415 343.346 110.73C343.494 110.983 343.621 111.199 343.727 111.371L330.977 117.546C330.049 115.763 329.421 114.778 328.875 114.059C327.673 112.356 323.742 107.963 317.135 107.963C315.305 107.963 310.992 108.309 307.306 111.717C304.658 114.139 301.163 119.41 301.163 128.087C301.163 128.886 301.163 130.403 301.436 132.373C302.528 141.051 306.378 144.99 309.982 146.96C311.183 147.679 313.64 148.744 317.135 148.744C325.625 148.744 329.21 142.731 330.848 139.985C330.964 139.79 331.07 139.612 331.168 139.454L344 145.816C342.062 148.664 340.696 150.554 339.768 151.619Z" stroke="black"/>
</svg>
