<svg width="50" height="69" viewBox="0 0 50 69" fill="none" xmlns="http://www.w3.org/2000/svg">
<rect width="50" height="69" fill="black"/>
<path d="M24.8778 54.0888C23.9466 54.0888 23.0153 54.0878 22.0841 54.0868C19.2904 54.0839 16.4967 54.081 13.703 54.1044C12.884 54.1121 12.2855 53.8554 11.8681 53.1784C11.6655 52.8463 11.4614 52.5141 11.2572 52.1818C10.7868 51.4163 10.3157 50.6496 9.85993 49.8791C9.6158 49.4589 9.79692 49.1477 10.2537 49.101C10.7498 49.0465 11.2617 49.0465 11.7578 49.1165C11.9547 49.1399 12.1673 49.3733 12.2933 49.5679C12.4536 49.808 12.5927 50.08 12.7312 50.3508C13.0145 50.9049 13.2953 51.4542 13.7502 51.7155C14.2152 51.9812 14.8714 51.9279 15.5232 51.8751C15.7878 51.8536 16.0517 51.8322 16.3018 51.8322C17.5729 51.8322 18.8439 51.8319 20.115 51.8316C25.1989 51.8303 30.2818 51.8291 35.3596 51.8478C35.9109 51.8478 36.2495 51.6999 36.4936 51.2175C36.6197 50.9719 36.7633 50.735 36.9071 50.4977C37.0686 50.2313 37.2303 49.9645 37.3678 49.6846C37.5883 49.2333 37.8875 49.0387 38.3915 49.0776C38.5575 49.0919 38.7252 49.0882 38.893 49.0845C39.0914 49.0801 39.2899 49.0757 39.4862 49.101C39.9508 49.1632 40.1398 49.4667 39.8878 49.8791C39.1948 51.0463 38.4782 52.1902 37.7536 53.3418C37.3993 53.9098 36.8638 54.1121 36.1865 54.1044C33.3634 54.081 30.5358 54.0839 27.7072 54.0868C26.7641 54.0878 25.821 54.0888 24.8778 54.0888Z" fill="white"/>
<path d="M24.8778 54.0888C23.9466 54.0888 23.0153 54.0878 22.0841 54.0868C19.2904 54.0839 16.4967 54.081 13.703 54.1044C12.884 54.1121 12.2855 53.8554 11.8681 53.1784C11.6655 52.8463 11.4614 52.5141 11.2572 52.1818C10.7868 51.4163 10.3157 50.6496 9.85993 49.8791C9.6158 49.4589 9.79692 49.1477 10.2537 49.101C10.7498 49.0465 11.2617 49.0465 11.7578 49.1165C11.9547 49.1399 12.1673 49.3733 12.2933 49.5679C12.4536 49.808 12.5927 50.08 12.7312 50.3508C13.0145 50.9049 13.2953 51.4542 13.7502 51.7155C14.2152 51.9812 14.8714 51.9279 15.5232 51.8751C15.7878 51.8536 16.0517 51.8322 16.3018 51.8322C17.5729 51.8322 18.8439 51.8319 20.115 51.8316C25.1989 51.8303 30.2818 51.8291 35.3596 51.8478C35.9109 51.8478 36.2495 51.6999 36.4936 51.2175C36.6197 50.9719 36.7633 50.735 36.9071 50.4977C37.0686 50.2313 37.2303 49.9645 37.3678 49.6846C37.5883 49.2333 37.8875 49.0387 38.3915 49.0776C38.5575 49.0919 38.7252 49.0882 38.893 49.0845C39.0914 49.0801 39.2899 49.0757 39.4862 49.101C39.9508 49.1632 40.1398 49.4667 39.8878 49.8791C39.1948 51.0463 38.4782 52.1902 37.7536 53.3418C37.3993 53.9098 36.8638 54.1121 36.1865 54.1044C33.3634 54.081 30.5358 54.0839 27.7072 54.0868C26.7641 54.0878 25.821 54.0888 24.8778 54.0888Z" stroke="white"/>
<path d="M20.0264 40.5882C20.0182 40.574 20.0099 40.5591 20.0015 40.5441C19.9779 40.5017 19.9531 40.4572 19.924 40.417C19.6799 39.9891 19.4358 39.5533 19.2153 39.1098C18.8845 38.4562 18.8136 37.8181 19.2783 37.1411C19.7035 36.5186 19.4673 35.686 18.8609 35.2425C18.2939 34.8301 17.656 34.9468 17.1677 35.5693C16.1282 36.8921 16.0416 38.6818 16.9394 40.2459C16.9476 40.2601 16.9559 40.2749 16.9643 40.29C16.9879 40.3324 17.0127 40.3768 17.0417 40.417C17.2859 40.845 17.53 41.2808 17.7505 41.7243C18.0813 42.3779 18.1521 43.016 17.6875 43.693C17.2622 44.3155 17.4985 45.1481 18.1049 45.5916C18.6719 46.004 19.3098 45.8873 19.798 45.2648C20.8375 43.942 20.9163 42.16 20.0264 40.5882Z" fill="white"/>
<path d="M20.0264 40.5882C20.0182 40.574 20.0099 40.5591 20.0015 40.5441C19.9779 40.5017 19.9531 40.4572 19.924 40.417C19.6799 39.9891 19.4358 39.5533 19.2153 39.1098C18.8845 38.4562 18.8136 37.8181 19.2783 37.1411C19.7035 36.5186 19.4673 35.686 18.8609 35.2425C18.2939 34.8301 17.656 34.9468 17.1677 35.5693C16.1282 36.8921 16.0416 38.6818 16.9394 40.2459C16.9476 40.2601 16.9559 40.2749 16.9643 40.29C16.9879 40.3324 17.0127 40.3768 17.0417 40.417C17.2859 40.845 17.53 41.2808 17.7505 41.7243C18.0813 42.3779 18.1521 43.016 17.6875 43.693C17.2622 44.3155 17.4985 45.1481 18.1049 45.5916C18.6719 46.004 19.3098 45.8873 19.798 45.2648C20.8375 43.942 20.9163 42.16 20.0264 40.5882Z" stroke="white"/>
<path d="M26.3423 40.5882C26.3341 40.574 26.3258 40.5591 26.3174 40.5441C26.2938 40.5017 26.269 40.4572 26.24 40.417C25.9958 39.9891 25.7517 39.5533 25.5312 39.1098C25.2004 38.4562 25.1296 37.8181 25.5942 37.1411C26.0194 36.5186 25.7832 35.686 25.1768 35.2425C24.6098 34.8301 23.9719 34.9468 23.4837 35.5693C22.4441 36.8921 22.3575 38.6818 23.2553 40.2459C23.2635 40.2601 23.2718 40.2749 23.2802 40.29C23.3038 40.3324 23.3286 40.3768 23.3577 40.417C23.6018 40.845 23.8459 41.2808 24.0664 41.7243C24.3972 42.3779 24.468 43.016 24.0034 43.693C23.5782 44.3155 23.8144 45.1481 24.4208 45.5916C24.9878 46.004 25.6257 45.8873 26.1139 45.2648C27.1535 43.942 27.2322 42.16 26.3423 40.5882Z" fill="white"/>
<path d="M26.3423 40.5882C26.3341 40.574 26.3258 40.5591 26.3174 40.5441C26.2938 40.5017 26.269 40.4572 26.24 40.417C25.9958 39.9891 25.7517 39.5533 25.5312 39.1098C25.2004 38.4562 25.1296 37.8181 25.5942 37.1411C26.0194 36.5186 25.7832 35.686 25.1768 35.2425C24.6098 34.8301 23.9719 34.9468 23.4837 35.5693C22.4441 36.8921 22.3575 38.6818 23.2553 40.2459C23.2635 40.2601 23.2718 40.2749 23.2802 40.29C23.3038 40.3324 23.3286 40.3768 23.3577 40.417C23.6018 40.845 23.8459 41.2808 24.0664 41.7243C24.3972 42.3779 24.468 43.016 24.0034 43.693C23.5782 44.3155 23.8144 45.1481 24.4208 45.5916C24.9878 46.004 25.6257 45.8873 26.1139 45.2648C27.1535 43.942 27.2322 42.16 26.3423 40.5882Z" stroke="white"/>
<path d="M32.6504 40.5882C32.6422 40.574 32.6339 40.5591 32.6255 40.5441C32.6019 40.5017 32.5771 40.4572 32.5481 40.417C32.3039 39.9891 32.0598 39.5533 31.8393 39.1098C31.5085 38.4562 31.4377 37.8181 31.9023 37.1411C32.3276 36.5186 32.0913 35.686 31.4849 35.2425C30.9179 34.8301 30.28 34.9468 29.7918 35.5693C28.7522 36.8921 28.6656 38.6818 29.5634 40.2459C29.5716 40.2601 29.5799 40.2749 29.5883 40.29C29.6119 40.3324 29.6367 40.3768 29.6658 40.417C29.9099 40.845 30.154 41.2808 30.3745 41.7243C30.7053 42.3779 30.7762 43.016 30.3115 43.693C29.8863 44.3155 30.1225 45.1481 30.7289 45.5916C31.2959 46.004 31.9338 45.8873 32.4221 45.2648C33.4695 43.942 33.5482 42.16 32.6504 40.5882Z" fill="white"/>
<path d="M32.6504 40.5882C32.6422 40.574 32.6339 40.5591 32.6255 40.5441C32.6019 40.5017 32.5771 40.4572 32.5481 40.417C32.3039 39.9891 32.0598 39.5533 31.8393 39.1098C31.5085 38.4562 31.4377 37.8181 31.9023 37.1411C32.3276 36.5186 32.0913 35.686 31.4849 35.2425C30.9179 34.8301 30.28 34.9468 29.7918 35.5693C28.7522 36.8921 28.6656 38.6818 29.5634 40.2459C29.5716 40.2601 29.5799 40.2749 29.5883 40.29C29.6119 40.3324 29.6367 40.3768 29.6658 40.417C29.9099 40.845 30.154 41.2808 30.3745 41.7243C30.7053 42.3779 30.7762 43.016 30.3115 43.693C29.8863 44.3155 30.1225 45.1481 30.7289 45.5916C31.2959 46.004 31.9338 45.8873 32.4221 45.2648C33.4695 43.942 33.5482 42.16 32.6504 40.5882Z" stroke="white"/>
</svg>
