<svg width="397" height="39" viewBox="0 0 397 39" fill="none" xmlns="http://www.w3.org/2000/svg">
<path d="M28.6263 18.655L28.4897 18.3879L27.8659 18.7067L28.5271 18.9382L28.6263 18.655ZM33.6083 22.153L33.3689 22.3339L33.3709 22.3364L33.6083 22.153ZM31.4883 35.35L31.6562 35.5986L31.6562 35.5986L31.4883 35.35ZM0.112252 38H-0.187748V38.3H0.112252V38ZM0.112252 0.899997V0.599997H-0.187748V0.899997H0.112252ZM29.8983 3.55L29.7239 3.79413L29.7262 3.79577L29.8983 3.55ZM32.2833 15.369L32.0288 15.21L32.0278 15.2118L32.2833 15.369ZM10.5003 8.479V8.179H10.2003V8.479H10.5003ZM10.5003 15.634H10.2003V15.934H10.5003V15.634ZM10.5003 22.895V22.595H10.2003V22.895H10.5003ZM10.5003 30.421H10.2003V30.721H10.5003V30.421ZM28.5271 18.9382C30.5987 19.6632 32.2076 20.7969 33.3689 22.3338L33.8476 21.9721C32.6062 20.3291 30.8938 19.1308 28.7254 18.3718L28.5271 18.9382ZM33.3709 22.3364C34.5263 23.8317 35.1103 25.6551 35.1103 27.824H35.7103C35.7103 25.5409 35.0929 23.5837 33.8456 21.9696L33.3709 22.3364ZM35.1103 27.824C35.1103 30.9786 33.8495 33.3925 31.3203 35.1014L31.6562 35.5986C34.3564 33.7741 35.7103 31.1707 35.7103 27.824H35.1103ZM31.3203 35.1014C28.7761 36.8205 25.0644 37.7 20.1463 37.7V38.3C25.1214 38.3 28.9711 37.4128 31.6562 35.5986L31.3203 35.1014ZM20.1463 37.7H0.112252V38.3H20.1463V37.7ZM0.412252 38V0.899997H-0.187748V38H0.412252ZM0.112252 1.2H19.0863V0.599997H0.112252V1.2ZM19.0863 1.2C23.7909 1.2 27.3227 2.07896 29.7239 3.79412L30.0726 3.30588C27.5272 1.4877 23.851 0.599997 19.0863 0.599997V1.2ZM29.7262 3.79577C32.121 5.47212 33.3083 7.73089 33.3083 10.599H33.9083C33.9083 7.53111 32.6222 5.09055 30.0703 3.30423L29.7262 3.79577ZM33.3083 10.599C33.3083 12.313 32.8806 13.8473 32.0289 15.21L32.5377 15.528C33.4526 14.0641 33.9083 12.4184 33.9083 10.599H33.3083ZM32.0278 15.2118C31.2115 16.5382 30.036 17.5976 28.4897 18.3879L28.7628 18.9221C30.3965 18.0871 31.659 16.9558 32.5388 15.5262L32.0278 15.2118ZM10.2003 8.479V15.634H10.8003V8.479H10.2003ZM10.5003 15.934H17.7083V15.334H10.5003V15.934ZM17.7083 15.934C19.4995 15.934 20.8959 15.6312 21.8519 14.9811C22.8287 14.3169 23.3083 13.3162 23.3083 12.03H22.7083C22.7083 13.1465 22.3045 13.9478 21.5146 14.4849C20.7039 15.0361 19.4503 15.334 17.7083 15.334V15.934ZM23.3083 12.03C23.3083 10.7596 22.8272 9.77207 21.8502 9.11752C20.8946 8.47723 19.499 8.179 17.7083 8.179V8.779C19.4509 8.779 20.7053 9.0726 21.5163 9.61598C22.306 10.1451 22.7083 10.9331 22.7083 12.03H23.3083ZM17.7083 8.179H10.5003V8.779H17.7083V8.179ZM19.2983 30.721C21.1604 30.721 22.6099 30.4049 23.6014 29.728C24.6134 29.0371 25.1103 27.9967 25.1103 26.658H24.5103C24.5103 27.828 24.0884 28.669 23.2631 29.2325C22.4172 29.8099 21.1108 30.121 19.2983 30.121V30.721ZM25.1103 26.658C25.1103 25.3193 24.6134 24.2789 23.6014 23.588C22.6099 22.9111 21.1604 22.595 19.2983 22.595V23.195C21.1108 23.195 22.4172 23.5061 23.2631 24.0835C24.0884 24.647 24.5103 25.488 24.5103 26.658H25.1103ZM19.2983 22.595H10.5003V23.195H19.2983V22.595ZM10.2003 22.895V30.421H10.8003V22.895H10.2003ZM10.5003 30.721H19.2983V30.121H10.5003V30.721ZM41.3756 0.899997V0.599997H41.0756V0.899997H41.3756ZM51.8696 0.899997H52.1696V0.599997H51.8696V0.899997ZM51.8696 38V38.3H52.1696V38H51.8696ZM41.3756 38H41.0756V38.3H41.3756V38ZM41.3756 1.2H51.8696V0.599997H41.3756V1.2ZM51.5696 0.899997V38H52.1696V0.899997H51.5696ZM51.8696 37.7H41.3756V38.3H51.8696V37.7ZM41.6756 38V0.899997H41.0756V38H41.6756ZM89.6516 29.891H89.9516V29.591H89.6516V29.891ZM89.6516 38V38.3H89.9516V38H89.6516ZM59.8656 38H59.5656V38.3H59.8656V38ZM59.8656 0.899997V0.599997H59.5656V0.899997H59.8656ZM88.9626 0.899997H89.2626V0.599997H88.9626V0.899997ZM88.9626 9.009V9.309H89.2626V9.009H88.9626ZM70.2536 9.009V8.709H69.9536V9.009H70.2536ZM70.2536 15.263H69.9536V15.563H70.2536V15.263ZM86.7366 15.263H87.0366V14.963H86.7366V15.263ZM86.7366 23.107V23.407H87.0366V23.107H86.7366ZM70.2536 23.107V22.807H69.9536V23.107H70.2536ZM70.2536 29.891H69.9536V30.191H70.2536V29.891ZM89.3516 29.891V38H89.9516V29.891H89.3516ZM89.6516 37.7H59.8656V38.3H89.6516V37.7ZM60.1656 38V0.899997H59.5656V38H60.1656ZM59.8656 1.2H88.9626V0.599997H59.8656V1.2ZM88.6626 0.899997V9.009H89.2626V0.899997H88.6626ZM88.9626 8.709H70.2536V9.309H88.9626V8.709ZM69.9536 9.009V15.263H70.5536V9.009H69.9536ZM70.2536 15.563H86.7366V14.963H70.2536V15.563ZM86.4366 15.263V23.107H87.0366V15.263H86.4366ZM86.7366 22.807H70.2536V23.407H86.7366V22.807ZM69.9536 23.107V29.891H70.5536V23.107H69.9536ZM70.2536 30.191H89.6516V29.591H70.2536V30.191ZM131.303 0.899997H131.603V0.599997H131.303V0.899997ZM131.303 38V38.3H131.603V38H131.303ZM122.664 38L122.433 38.1914L122.523 38.3H122.664V38ZM106.287 18.231L106.518 18.0396L105.987 17.3986V18.231H106.287ZM106.287 38V38.3H106.587V38H106.287ZM96.005 38H95.705V38.3H96.005V38ZM96.005 0.899997V0.599997H95.705V0.899997H96.005ZM104.644 0.899997L104.875 0.708613L104.785 0.599997H104.644V0.899997ZM121.021 20.669L120.79 20.8604L121.321 21.5014V20.669H121.021ZM121.021 0.899997V0.599997H120.721V0.899997H121.021ZM131.003 0.899997V38H131.603V0.899997H131.003ZM131.303 37.7H122.664V38.3H131.303V37.7ZM122.895 37.8086L106.518 18.0396L106.056 18.4224L122.433 38.1914L122.895 37.8086ZM105.987 18.231V38H106.587V18.231H105.987ZM106.287 37.7H96.005V38.3H106.287V37.7ZM96.305 38V0.899997H95.705V38H96.305ZM96.005 1.2H104.644V0.599997H96.005V1.2ZM104.413 1.09138L120.79 20.8604L121.252 20.4776L104.875 0.708613L104.413 1.09138ZM121.321 20.669V0.899997H120.721V20.669H121.321ZM121.021 1.2H131.303V0.599997H121.021V1.2ZM176.762 0.899997L177.037 1.01817L177.217 0.599997H176.762V0.899997ZM160.862 38V38.3H161.059L161.137 38.1182L160.862 38ZM150.527 38L150.251 38.1178L150.329 38.3H150.527V38ZM134.68 0.899997V0.599997H134.225L134.404 1.01784L134.68 0.899997ZM146.022 0.899997L146.299 0.784613L146.222 0.599997H146.022V0.899997ZM156.092 25.068L155.815 25.1834L156.089 25.8411L156.368 25.1854L156.092 25.068ZM166.374 0.899997V0.599997H166.175L166.098 0.782553L166.374 0.899997ZM176.486 0.781822L160.586 37.8818L161.137 38.1182L177.037 1.01817L176.486 0.781822ZM160.862 37.7H150.527V38.3H160.862V37.7ZM150.803 37.8822L134.956 0.782155L134.404 1.01784L150.251 38.1178L150.803 37.8822ZM134.68 1.2H146.022V0.599997H134.68V1.2ZM145.745 1.01538L155.815 25.1834L156.369 24.9526L146.299 0.784613L145.745 1.01538ZM156.368 25.1854L166.65 1.01744L166.098 0.782553L155.816 24.9506L156.368 25.1854ZM166.374 1.2H176.762V0.599997H166.374V1.2ZM209.249 29.891H209.549V29.591H209.249V29.891ZM209.249 38V38.3H209.549V38H209.249ZM179.463 38H179.163V38.3H179.463V38ZM179.463 0.899997V0.599997H179.163V0.899997H179.463ZM208.56 0.899997H208.86V0.599997H208.56V0.899997ZM208.56 9.009V9.309H208.86V9.009H208.56ZM189.851 9.009V8.709H189.551V9.009H189.851ZM189.851 15.263H189.551V15.563H189.851V15.263ZM206.334 15.263H206.634V14.963H206.334V15.263ZM206.334 23.107V23.407H206.634V23.107H206.334ZM189.851 23.107V22.807H189.551V23.107H189.851ZM189.851 29.891H189.551V30.191H189.851V29.891ZM208.949 29.891V38H209.549V29.891H208.949ZM209.249 37.7H179.463V38.3H209.249V37.7ZM179.763 38V0.899997H179.163V38H179.763ZM179.463 1.2H208.56V0.599997H179.463V1.2ZM208.26 0.899997V9.009H208.86V0.899997H208.26ZM208.56 8.709H189.851V9.309H208.56V8.709ZM189.551 9.009V15.263H190.151V9.009H189.551ZM189.851 15.563H206.334V14.963H189.851V15.563ZM206.034 15.263V23.107H206.634V15.263H206.034ZM206.334 22.807H189.851V23.407H206.334V22.807ZM189.551 23.107V29.891H190.151V23.107H189.551ZM189.851 30.191H209.249V29.591H189.851V30.191ZM250.901 0.899997H251.201V0.599997H250.901V0.899997ZM250.901 38V38.3H251.201V38H250.901ZM242.262 38L242.031 38.1914L242.121 38.3H242.262V38ZM225.885 18.231L226.116 18.0396L225.585 17.3986V18.231H225.885ZM225.885 38V38.3H226.185V38H225.885ZM215.603 38H215.303V38.3H215.603V38ZM215.603 0.899997V0.599997H215.303V0.899997H215.603ZM224.242 0.899997L224.473 0.708613L224.383 0.599997H224.242V0.899997ZM240.619 20.669L240.388 20.8604L240.919 21.5014V20.669H240.619ZM240.619 0.899997V0.599997H240.319V0.899997H240.619ZM250.601 0.899997V38H251.201V0.899997H250.601ZM250.901 37.7H242.262V38.3H250.901V37.7ZM242.493 37.8086L226.116 18.0396L225.654 18.4224L242.031 38.1914L242.493 37.8086ZM225.585 18.231V38H226.185V18.231H225.585ZM225.885 37.7H215.603V38.3H225.885V37.7ZM215.903 38V0.899997H215.303V38H215.903ZM215.603 1.2H224.242V0.599997H215.603V1.2ZM224.011 1.09138L240.388 20.8604L240.85 20.4776L224.473 0.708613L224.011 1.09138ZM240.919 20.669V0.899997H240.319V20.669H240.919ZM240.619 1.2H250.901V0.599997H240.619V1.2ZM258.833 0.899997V0.599997H258.533V0.899997H258.833ZM269.327 0.899997H269.627V0.599997H269.327V0.899997ZM269.327 38V38.3H269.627V38H269.327ZM258.833 38H258.533V38.3H258.833V38ZM258.833 1.2H269.327V0.599997H258.833V1.2ZM269.027 0.899997V38H269.627V0.899997H269.027ZM269.327 37.7H258.833V38.3H269.327V37.7ZM259.133 38V0.899997H258.533V38H259.133ZM277.323 0.899997V0.599997H277.023V0.899997H277.323ZM305.678 3.179L305.547 3.44912L305.547 3.44912L305.678 3.179ZM312.992 29.255L313.247 29.4131L313.247 29.4131L312.992 29.255ZM277.323 38H277.023V38.3H277.323V38ZM302.074 26.923L301.87 26.703L301.868 26.7049L302.074 26.923ZM302.074 11.977L301.868 12.1951L301.87 12.197L302.074 11.977ZM287.817 9.274V8.974H287.517V9.274H287.817ZM287.817 29.626H287.517V29.926H287.817V29.626ZM277.323 1.2H294.866V0.599997H277.323V1.2ZM294.866 1.2C298.891 1.2 302.45 1.95242 305.547 3.44912L305.808 2.90888C302.617 1.36691 298.967 0.599997 294.866 0.599997V1.2ZM305.547 3.44912C308.644 4.94533 311.038 7.06328 312.737 9.80313L313.247 9.48687C311.484 6.64405 309.001 4.45134 305.808 2.90888L305.547 3.44912ZM312.737 9.80313C314.435 12.5406 315.289 15.7525 315.289 19.45H315.889C315.889 15.6568 315.012 12.3321 313.247 9.48687L312.737 9.80313ZM315.289 19.45C315.289 23.1475 314.435 26.3594 312.737 29.0969L313.247 29.4131C315.012 26.5679 315.889 23.2432 315.889 19.45H315.289ZM312.737 29.0969C311.038 31.8367 308.644 33.9547 305.547 35.4509L305.808 35.9911C309.001 34.4487 311.484 32.2559 313.247 29.4131L312.737 29.0969ZM305.547 35.4509C302.45 36.9476 298.891 37.7 294.866 37.7V38.3C298.967 38.3 302.617 37.5331 305.808 35.9911L305.547 35.4509ZM294.866 37.7H277.323V38.3H294.866V37.7ZM277.623 38V0.899997H277.023V38H277.623ZM294.442 29.926C297.681 29.926 300.305 29.0064 302.28 27.1411L301.868 26.7049C300.027 28.4436 297.562 29.326 294.442 29.326V29.926ZM302.278 27.143C304.295 25.273 305.289 22.6954 305.289 19.45H304.689C304.689 22.5646 303.74 24.969 301.87 26.703L302.278 27.143ZM305.289 19.45C305.289 16.2046 304.295 13.627 302.278 11.757L301.87 12.197C303.74 13.931 304.689 16.3354 304.689 19.45H305.289ZM302.28 11.7589C300.305 9.8936 297.681 8.974 294.442 8.974V9.574C297.562 9.574 300.027 10.4564 301.868 12.1951L302.28 11.7589ZM294.442 8.974H287.817V9.574H294.442V8.974ZM287.517 9.274V29.626H288.117V9.274H287.517ZM287.817 29.926H294.442V29.326H287.817V29.926ZM329.749 36.251L329.608 36.5156L329.609 36.5163L329.749 36.251ZM322.382 29.361L322.125 29.5158L322.126 29.5181L322.382 29.361ZM322.382 9.539L322.126 9.38194L322.125 9.3842L322.382 9.539ZM329.749 2.649L329.609 2.38371L329.608 2.38437L329.749 2.649ZM350.896 2.649L350.755 2.91362L350.756 2.91428L350.896 2.649ZM358.263 9.539L358.006 9.69381L358.007 9.69606L358.263 9.539ZM358.263 29.361L358.007 29.2039L358.006 29.2062L358.263 29.361ZM350.896 36.251L350.756 35.9857L350.755 35.9864L350.896 36.251ZM345.437 28.725L345.588 28.9844L345.588 28.9844L345.437 28.725ZM349.041 25.015L349.303 25.1607L349.305 25.1583L349.041 25.015ZM349.041 13.938L348.777 14.0813L348.779 14.0837L349.041 13.938ZM345.437 10.175L345.588 9.91565L345.588 9.91565L345.437 10.175ZM335.261 10.175L335.11 9.91565L335.11 9.91565L335.261 10.175ZM331.657 13.938L331.919 14.0837L331.921 14.0813L331.657 13.938ZM331.657 25.015L331.393 25.1583L331.395 25.1607L331.657 25.015ZM335.261 28.725L335.412 28.4656L335.412 28.4656L335.261 28.725ZM340.349 38.442C336.471 38.442 332.986 37.6213 329.889 35.9857L329.609 36.5163C332.801 38.202 336.383 39.042 340.349 39.042V38.442ZM329.89 35.9864C326.827 34.3502 324.411 32.0901 322.638 29.2039L322.126 29.5181C323.957 32.4972 326.453 34.8305 329.608 36.5156L329.89 35.9864ZM322.639 29.2062C320.903 26.3237 320.032 23.0743 320.032 19.45H319.432C319.432 23.1751 320.328 26.533 322.125 29.5158L322.639 29.2062ZM320.032 19.45C320.032 15.8257 320.903 12.5763 322.639 9.6938L322.125 9.3842C320.328 12.367 319.432 15.7249 319.432 19.45H320.032ZM322.638 9.69606C324.411 6.80988 326.827 4.54984 329.89 2.91362L329.608 2.38437C326.453 4.06949 323.957 6.40278 322.126 9.38194L322.638 9.69606ZM329.889 2.91428C332.986 1.27869 336.471 0.457998 340.349 0.457998V-0.142002C336.383 -0.142002 332.801 0.697973 329.609 2.38372L329.889 2.91428ZM340.349 0.457998C344.227 0.457998 347.694 1.2787 350.755 2.91362L351.037 2.38437C347.88 0.697959 344.315 -0.142002 340.349 -0.142002V0.457998ZM350.756 2.91428C353.854 4.55048 356.269 6.80978 358.006 9.6938L358.52 9.3842C356.724 6.40289 354.227 4.06885 351.036 2.38372L350.756 2.91428ZM358.007 9.69606C359.778 12.5783 360.666 15.8269 360.666 19.45H361.266C361.266 15.7238 360.352 12.3651 358.519 9.38194L358.007 9.69606ZM360.666 19.45C360.666 23.0731 359.778 26.3217 358.007 29.2039L358.519 29.5181C360.352 26.5349 361.266 23.1762 361.266 19.45H360.666ZM358.006 29.2062C356.269 32.0902 353.854 34.3495 350.756 35.9857L351.036 36.5163C354.227 34.8311 356.724 32.4971 358.52 29.5158L358.006 29.2062ZM350.755 35.9864C347.694 37.6213 344.227 38.442 340.349 38.442V39.042C344.315 39.042 347.88 38.202 351.037 36.5156L350.755 35.9864ZM340.349 30.35C342.271 30.35 344.02 29.8961 345.588 28.9844L345.286 28.4656C343.816 29.3206 342.172 29.75 340.349 29.75V30.35ZM345.588 28.9844C347.156 28.0729 348.395 26.7962 349.303 25.1607L348.779 24.8693C347.921 26.4138 346.757 27.6104 345.286 28.4656L345.588 28.9844ZM349.305 25.1583C350.215 23.4836 350.666 21.5783 350.666 19.45H350.066C350.066 21.4911 349.634 23.2957 348.777 24.8717L349.305 25.1583ZM350.666 19.45C350.666 17.3219 350.215 15.433 349.303 13.7923L348.779 14.0837C349.634 15.623 350.066 17.4088 350.066 19.45H350.666ZM349.305 13.7947C348.396 12.1238 347.157 10.8281 345.588 9.91565L345.286 10.4344C346.756 11.2886 347.919 12.5016 348.777 14.0813L349.305 13.7947ZM345.588 9.91565C344.02 9.00394 342.271 8.55 340.349 8.55V9.15C342.172 9.15 343.816 9.57939 345.286 10.4344L345.588 9.91565ZM340.349 8.55C338.427 8.55 336.678 9.00394 335.11 9.91565L335.412 10.4344C336.882 9.57939 338.526 9.15 340.349 9.15V8.55ZM335.11 9.91565C333.541 10.8281 332.302 12.1238 331.393 13.7947L331.921 14.0813C332.779 12.5016 333.943 11.2886 335.412 10.4344L335.11 9.91565ZM331.395 13.7923C330.483 15.433 330.032 17.3219 330.032 19.45H330.632C330.632 17.4088 331.064 15.623 331.919 14.0837L331.395 13.7923ZM330.032 19.45C330.032 21.5783 330.483 23.4836 331.393 25.1583L331.921 24.8717C331.064 23.2957 330.632 21.4911 330.632 19.45H330.032ZM331.395 25.1607C332.303 26.7962 333.543 28.0729 335.11 28.9844L335.412 28.4656C333.941 27.6104 332.777 26.4138 331.919 24.8693L331.395 25.1607ZM335.11 28.9844C336.678 29.8961 338.427 30.35 340.349 30.35V29.75C338.526 29.75 336.882 29.3206 335.412 28.4656L335.11 28.9844ZM371.285 37.629L371.361 37.3388L371.361 37.3388L371.285 37.629ZM364.395 34.661L364.121 34.539L364.021 34.7649L364.223 34.9068L364.395 34.661ZM367.84 26.923L368.005 26.6726L367.71 26.4778L367.566 26.801L367.84 26.923ZM373.617 29.573L373.705 29.2862L373.705 29.2862L373.617 29.573ZM384.376 25.227L384.249 25.4988L384.259 25.5032L384.376 25.227ZM378.864 23.584L378.929 23.2911L378.927 23.2907L378.864 23.584ZM371.868 21.676L371.762 21.9567L371.767 21.9584L371.868 21.676ZM366.886 6.094L367.134 6.26376L367.135 6.26151L366.886 6.094ZM372.398 1.748L372.28 1.47225L372.279 1.47288L372.398 1.748ZM388.669 1.006L388.6 1.29782L388.604 1.29875L388.669 1.006ZM394.923 3.391L395.2 3.50598L395.3 3.26481L395.075 3.13242L394.923 3.391ZM391.69 11.182L391.548 11.446L391.84 11.6038L391.967 11.297L391.69 11.182ZM376.85 9.274L377.01 9.52795L377.017 9.52361L376.85 9.274ZM377.115 13.885L376.995 14.1598L376.995 14.1598L377.115 13.885ZM382.574 15.422L382.637 15.1286L382.636 15.1285L382.574 15.422ZM389.57 17.383L389.463 17.6631L389.469 17.6654L389.57 17.383ZM394.393 20.669L394.168 20.8677L394.173 20.8731L394.393 20.669ZM394.605 32.806L394.358 32.6362L394.358 32.6362L394.605 32.806ZM389.04 37.152L389.159 37.4278L389.162 37.4263L389.04 37.152ZM380.03 38.442C377.052 38.442 374.163 38.0741 371.361 37.3388L371.209 37.9192C374.061 38.6679 377.002 39.042 380.03 39.042V38.442ZM371.361 37.3388C368.558 36.6029 366.297 35.6257 364.567 34.4152L364.223 34.9068C366.027 36.1696 368.36 37.1711 371.209 37.9192L371.361 37.3388ZM364.669 34.783L368.114 27.045L367.566 26.801L364.121 34.539L364.669 34.783ZM367.675 27.1734C369.363 28.2867 371.315 29.1814 373.529 29.8598L373.705 29.2862C371.538 28.622 369.639 27.75 368.005 26.6726L367.675 27.1734ZM373.529 29.8598C375.746 30.5392 377.931 30.88 380.083 30.88V30.28C377.995 30.28 375.87 29.9495 373.705 29.2862L373.529 29.8598ZM380.083 30.88C382.113 30.88 383.679 30.6279 384.749 30.0931C385.288 29.8235 385.71 29.4774 385.997 29.0471C386.285 28.6149 386.425 28.115 386.425 27.559H385.825C385.825 28.01 385.713 28.3913 385.498 28.7143C385.281 29.0392 384.949 29.3225 384.481 29.5564C383.536 30.0286 382.082 30.28 380.083 30.28V30.88ZM386.425 27.559C386.425 26.9703 386.262 26.4464 385.928 26.001C385.597 25.559 385.111 25.2127 384.493 24.9508L384.259 25.5032C384.808 25.736 385.197 26.0256 385.448 26.361C385.697 26.693 385.825 27.0877 385.825 27.559H386.425ZM384.504 24.9554C383.341 24.4106 381.477 23.8573 378.929 23.2911L378.799 23.8769C381.34 24.4414 383.15 24.9834 384.249 25.4986L384.504 24.9554ZM378.927 23.2907C376.144 22.6917 373.826 22.059 371.97 21.3936L371.767 21.9584C373.656 22.6357 376.002 23.2749 378.801 23.8773L378.927 23.2907ZM371.974 21.3953C370.148 20.7061 368.581 19.6216 367.27 18.1383L366.821 18.5357C368.195 20.0911 369.843 21.2325 371.762 21.9567L371.974 21.3953ZM367.27 18.1383C365.988 16.6875 365.331 14.7157 365.331 12.189H364.731C364.731 14.821 365.417 16.9478 366.821 18.5357L367.27 18.1383ZM365.331 12.189C365.331 9.98604 365.933 8.01397 367.134 6.26375L366.639 5.92424C365.367 7.77802 364.731 9.8693 364.731 12.189H365.331ZM367.135 6.26151C368.334 4.48041 370.122 3.06493 372.518 2.02312L372.279 1.47288C369.799 2.55107 367.912 4.03292 366.637 5.92648L367.135 6.26151ZM372.516 2.02374C374.942 0.984049 377.921 0.457998 381.461 0.457998V-0.142002C377.865 -0.142002 374.801 0.391947 372.28 1.47226L372.516 2.02374ZM381.461 0.457998C383.876 0.457998 386.255 0.73792 388.6 1.29779L388.739 0.714204C386.349 0.143409 383.923 -0.142002 381.461 -0.142002V0.457998ZM388.604 1.29875C390.945 1.823 393 2.60771 394.771 3.64958L395.075 3.13242C393.243 2.05429 391.128 1.249 388.735 0.713246L388.604 1.29875ZM394.646 3.27601L391.413 11.067L391.967 11.297L395.2 3.50598L394.646 3.27601ZM391.833 10.918C388.265 8.99129 384.789 8.02 381.408 8.02V8.62C384.67 8.62 388.049 9.55671 391.548 11.446L391.833 10.918ZM381.408 8.02C379.306 8.02 377.713 8.33817 376.684 9.02438L377.017 9.52361C377.895 8.93783 379.341 8.62 381.408 8.62V8.02ZM376.69 9.02013C375.664 9.66668 375.119 10.5507 375.119 11.659H375.719C375.719 10.7886 376.129 10.0827 377.01 9.52787L376.69 9.02013ZM375.119 11.659C375.119 12.2151 375.28 12.7128 375.605 13.1393C375.927 13.5619 376.398 13.8985 376.995 14.1598L377.236 13.6102C376.702 13.3769 376.325 13.0951 376.082 12.7757C375.842 12.4602 375.719 12.0922 375.719 11.659H375.119ZM376.995 14.1598C378.155 14.6675 380 15.1848 382.512 15.7155L382.636 15.1285C380.131 14.5992 378.337 14.0919 377.236 13.6102L376.995 14.1598ZM382.512 15.7154C385.33 16.3142 387.645 16.964 389.463 17.663L389.678 17.103C387.821 16.3887 385.472 15.7311 382.637 15.1286L382.512 15.7154ZM389.469 17.6654C391.293 18.3193 392.859 19.3854 394.169 20.8677L394.618 20.4703C393.243 18.9139 391.593 17.7893 389.672 17.1006L389.469 17.6654ZM394.173 20.8731C395.487 22.2877 396.16 24.2389 396.16 26.764H396.76C396.76 24.1305 396.056 22.0183 394.613 20.4649L394.173 20.8731ZM396.16 26.764C396.16 28.9306 395.56 30.8852 394.358 32.6362L394.853 32.9758C396.124 31.1228 396.76 29.0494 396.76 26.764H396.16ZM394.358 32.6362C393.159 34.3826 391.353 35.7995 388.919 36.8777L389.162 37.4263C391.674 36.3138 393.578 34.8334 394.853 32.9758L394.358 32.6362ZM388.922 36.8763C386.496 37.9161 383.535 38.442 380.03 38.442V39.042C383.592 39.042 386.638 38.5079 389.158 37.4277L388.922 36.8763Z" fill="#FFECCC"/>
</svg>
