<svg width="397" height="39" viewBox="0 0 397 39" fill="none" xmlns="http://www.w3.org/2000/svg">
<path d="M28.6263 18.655C30.7463 19.397 32.4069 20.563 33.6083 22.153C34.8096 23.7077 35.4103 25.598 35.4103 27.824C35.4103 31.0747 34.1029 33.5833 31.4883 35.35C28.8736 37.1167 25.0929 38 20.1463 38H0.112252V0.899997H19.0863C23.8209 0.899997 27.4249 1.78333 29.8983 3.55C32.3716 5.28133 33.6083 7.631 33.6083 10.599C33.6083 12.3657 33.1666 13.9557 32.2833 15.369C31.4353 16.747 30.2163 17.8423 28.6263 18.655ZM10.5003 8.479V15.634H17.7083C21.2416 15.634 23.0083 14.4327 23.0083 12.03C23.0083 9.66267 21.2416 8.479 17.7083 8.479H10.5003ZM19.2983 30.421C22.9729 30.421 24.8103 29.1667 24.8103 26.658C24.8103 24.1493 22.9729 22.895 19.2983 22.895H10.5003V30.421H19.2983ZM41.3756 0.899997H51.8696V38H41.3756V0.899997ZM89.6516 29.891V38H59.8656V0.899997H88.9626V9.009H70.2536V15.263H86.7366V23.107H70.2536V29.891H89.6516ZM131.303 0.899997V38H122.664L106.287 18.231V38H96.005V0.899997H104.644L121.021 20.669V0.899997H131.303ZM176.762 0.899997L160.862 38H150.527L134.68 0.899997H146.022L156.092 25.068L166.374 0.899997H176.762ZM209.249 29.891V38H179.463V0.899997H208.56V9.009H189.851V15.263H206.334V23.107H189.851V29.891H209.249ZM250.901 0.899997V38H242.262L225.885 18.231V38H215.603V0.899997H224.242L240.619 20.669V0.899997H250.901ZM258.833 0.899997H269.327V38H258.833V0.899997ZM277.323 0.899997H294.866C298.929 0.899997 302.533 1.65966 305.678 3.179C308.823 4.69833 311.261 6.85367 312.992 9.645C314.723 12.4363 315.589 15.7047 315.589 19.45C315.589 23.1953 314.723 26.4637 312.992 29.255C311.261 32.0463 308.823 34.2017 305.678 35.721C302.533 37.2403 298.929 38 294.866 38H277.323V0.899997ZM294.442 29.626C297.622 29.626 300.166 28.725 302.074 26.923C304.017 25.121 304.989 22.63 304.989 19.45C304.989 16.27 304.017 13.779 302.074 11.977C300.166 10.175 297.622 9.274 294.442 9.274H287.817V29.626H294.442ZM340.349 38.742C336.427 38.742 332.894 37.9117 329.749 36.251C326.64 34.5903 324.184 32.2937 322.382 29.361C320.615 26.4283 319.732 23.1247 319.732 19.45C319.732 15.7753 320.615 12.4717 322.382 9.539C324.184 6.60633 326.64 4.30967 329.749 2.649C332.894 0.988331 336.427 0.157998 340.349 0.157998C344.271 0.157998 347.787 0.988331 350.896 2.649C354.041 4.30967 356.496 6.60633 358.263 9.539C360.065 12.4717 360.966 15.7753 360.966 19.45C360.966 23.1247 360.065 26.4283 358.263 29.361C356.496 32.2937 354.041 34.5903 350.896 36.251C347.787 37.9117 344.271 38.742 340.349 38.742ZM340.349 30.05C342.222 30.05 343.918 29.6083 345.437 28.725C346.956 27.8417 348.158 26.605 349.041 25.015C349.924 23.3897 350.366 21.5347 350.366 19.45C350.366 17.3653 349.924 15.528 349.041 13.938C348.158 12.3127 346.956 11.0583 345.437 10.175C343.918 9.29167 342.222 8.85 340.349 8.85C338.476 8.85 336.78 9.29167 335.261 10.175C333.742 11.0583 332.54 12.3127 331.657 13.938C330.774 15.528 330.332 17.3653 330.332 19.45C330.332 21.5347 330.774 23.3897 331.657 25.015C332.54 26.605 333.742 27.8417 335.261 28.725C336.78 29.6083 338.476 30.05 340.349 30.05ZM380.03 38.742C377.027 38.742 374.112 38.371 371.285 37.629C368.459 36.887 366.162 35.8977 364.395 34.661L367.84 26.923C369.501 28.0183 371.427 28.9017 373.617 29.573C375.808 30.2443 377.963 30.58 380.083 30.58C384.111 30.58 386.125 29.573 386.125 27.559C386.125 26.499 385.542 25.7217 384.376 25.227C383.246 24.697 381.408 24.1493 378.864 23.584C376.073 22.9833 373.741 22.3473 371.868 21.676C369.996 20.9693 368.388 19.8563 367.045 18.337C365.703 16.8177 365.031 14.7683 365.031 12.189C365.031 9.92767 365.65 7.896 366.886 6.094C368.123 4.25666 369.96 2.808 372.398 1.748C374.872 0.687998 377.893 0.157998 381.461 0.157998C383.899 0.157998 386.302 0.440665 388.669 1.006C391.037 1.536 393.121 2.331 394.923 3.391L391.69 11.182C388.157 9.274 384.73 8.32 381.408 8.32C379.324 8.32 377.804 8.638 376.85 9.274C375.896 9.87466 375.419 10.6697 375.419 11.659C375.419 12.6483 375.985 13.3903 377.115 13.885C378.246 14.3797 380.066 14.892 382.574 15.422C385.401 16.0227 387.733 16.6763 389.57 17.383C391.443 18.0543 393.051 19.1497 394.393 20.669C395.771 22.153 396.46 24.1847 396.46 26.764C396.46 28.99 395.842 31.004 394.605 32.806C393.369 34.608 391.514 36.0567 389.04 37.152C386.567 38.212 383.564 38.742 380.03 38.742Z" fill="white"/>
</svg>
