<?xml version="1.0" encoding="UTF-8"?>
<svg xmlns="http://www.w3.org/2000/svg" xmlns:xlink="http://www.w3.org/1999/xlink" width="517pt" height="98pt" viewBox="0 0 517 98" version="1.1">
<g id="surface1">
<path style=" stroke:none;fill-rule:evenodd;fill:rgb(30.198669%,45.498657%,66.699219%);fill-opacity:1;" d="M 33.652344 23.101563 L 104.851563 23.101563 L 104.851563 24.820313 L 48.15625 24.820313 L 36.082031 27.386719 Z M 82.394531 5.863281 L 118.324219 5.863281 L 76.015625 17.957031 Z M 501.980469 16.242188 L 501.980469 3.542969 L 516.289063 3.542969 L 516.289063 16.242188 Z M 139.136719 3.371094 L 168.332031 3.371094 C 180.601563 3.371094 194.925781 7.273438 194.925781 21.457031 C 194.925781 28.824219 193.035156 32.140625 188.921875 38.542969 C 192.980469 41.671875 197.105469 45.558594 197.105469 56.171875 C 197.105469 71.503906 181.199219 76.707031 171.253906 76.707031 L 139.136719 76.707031 Z M 154.667969 16.527344 L 154.667969 32.539063 L 171.34375 32.539063 C 174.199219 32.539063 176.410156 31.757813 177.984375 30.195313 C 179.554688 28.632813 180.34375 26.667969 180.34375 24.304688 C 180.269531 22.015625 179.429688 20.148438 177.820313 18.699219 C 176.210938 17.25 173.796875 16.527344 170.578125 16.527344 Z M 154.667969 45.40625 L 154.667969 63.421875 L 172.949219 63.421875 C 175.441406 63.421875 177.6875 62.667969 179.683594 61.15625 C 181.679688 59.644531 182.675781 57.417969 182.675781 54.472656 C 182.675781 51.375 181.695313 49.089844 179.738281 47.617188 C 177.777344 46.144531 174.765625 45.40625 170.703125 45.40625 Z M 459.390625 22.503906 L 459.390625 29.011719 C 463.988281 21.824219 469.925781 21.515625 477.753906 21.457031 C 490.765625 21.351563 493.492188 31.304688 493.492188 42.667969 L 493.492188 76.707031 L 479.183594 76.707031 L 479.183594 48.234375 C 479.183594 39.417969 477.917969 34.359375 469.558594 34.253906 C 461.75 34.160156 459.957031 40.578125 459.957031 49.085938 L 459.957031 76.707031 L 445.644531 76.707031 L 445.644531 22.503906 Z M 501.980469 22.503906 L 516.289063 22.503906 L 516.289063 76.707031 L 501.980469 76.707031 Z M 409.253906 40 L 395.519531 40 C 395.710938 33.3125 397.84375 28.386719 401.914063 25.222656 C 405.988281 22.058594 411.402344 20.472656 418.160156 20.472656 C 425.863281 20.472656 431.480469 22.179688 435.019531 25.597656 C 438.554688 29.011719 440.289063 34.0625 440.226563 40.746094 L 439.941406 65.5 C 439.878906 69.554688 440.070313 72.222656 440.511719 73.503906 C 440.953125 74.785156 441.710938 75.53125 442.785156 75.746094 L 442.785156 76.707031 L 427.628906 76.707031 L 426.398438 71.371094 L 426.113281 71.371094 C 424.472656 73.648438 422.246094 75.425781 419.4375 76.707031 C 416.628906 77.984375 413.484375 78.660156 410.011719 78.730469 C 404.519531 78.730469 400.351563 77.34375 397.511719 74.570313 C 394.667969 71.796875 393.28125 67.957031 393.246094 63.046875 C 393.21875 58.496094 394.464844 53.046875 397.085938 50.269531 C 399.703125 47.496094 404.363281 45.546875 411.054688 44.402344 C 415.742188 43.601563 430.621094 43.554688 425.199219 33.40625 C 424.351563 31.820313 420.589844 31.359375 418.0625 31.359375 C 412.570313 31.359375 409.132813 34.433594 409.253906 40 Z M 426.027344 54.296875 L 426.027344 50.882813 C 424.460938 51.667969 423.378906 52.183594 422.78125 52.429688 C 422.183594 52.679688 420.128906 53.125 416.613281 53.765625 C 413.664063 54.335938 411.515625 55.242188 410.164063 56.484375 C 408.816406 57.730469 408.175781 59.417969 408.238281 61.554688 C 408.238281 63.6875 408.941406 65.269531 410.355469 66.300781 C 411.765625 67.332031 413.507813 67.847656 415.578125 67.847656 C 418.277344 67.847656 420.695313 66.691406 422.828125 64.382813 C 424.960938 62.070313 426.027344 58.707031 426.027344 54.296875 Z M 341.738281 22.503906 L 355.199219 22.503906 L 355.105469 29.011719 L 355.386719 29.011719 C 357.332031 26.234375 359.59375 24.136719 362.164063 22.714844 C 364.738281 21.292969 367.625 20.546875 370.824219 20.472656 C 377.539063 20.472656 382.84375 23.105469 386.734375 28.371094 C 390.628906 33.632813 392.570313 40.746094 392.570313 49.710938 C 392.570313 58.460938 390.578125 65.484375 386.59375 70.78125 C 382.609375 76.082031 377.257813 78.730469 370.542969 78.730469 C 367.84375 78.730469 365.164063 78.109375 362.496094 76.863281 C 359.828125 75.621094 357.679688 73.71875 356.046875 71.15625 L 356.046875 97.734375 L 341.738281 97.734375 Z M 356.199219 50.460938 C 356.199219 55.734375 357.210938 59.785156 359.222656 62.613281 C 361.238281 65.441406 364.039063 66.851563 367.621094 66.851563 C 371.136719 66.851563 373.902344 65.441406 375.917969 62.613281 C 377.933594 59.785156 378.941406 55.734375 378.941406 50.460938 C 378.941406 44.996094 377.871094 40.925781 375.726563 38.257813 C 373.585938 35.589844 370.882813 34.253906 367.621094 34.253906 C 364.292969 34.253906 361.558594 35.589844 359.414063 38.257813 C 357.273438 40.925781 356.199219 44.996094 356.199219 50.460938 Z M 259.265625 22.503906 L 272.917969 22.503906 L 272.917969 30.398438 C 276.355469 25.054688 281.066406 21.386719 287.917969 21.386719 C 295.078125 21.386719 300.1875 24.789063 302.246094 31.359375 C 306.007813 25.210938 311.289063 21.386719 318.976563 21.386719 C 324.554688 21.386719 328.703125 22.464844 331.429688 26.449219 C 334.152344 30.433594 335.546875 36.195313 335.613281 43.734375 L 335.613281 76.707031 L 320.996094 76.707031 L 320.996094 44.800781 C 320.996094 40.074219 320.441406 34.253906 313.6875 34.253906 C 306.390625 34.253906 304.746094 40.046875 304.746094 45.546875 L 304.746094 76.707031 L 290.128906 76.707031 L 290.128906 44.800781 C 290.128906 39.839844 289.722656 34.253906 282.726563 34.253906 C 275.539063 34.253906 273.878906 40.15625 273.878906 45.546875 L 273.878906 76.707031 L 259.265625 76.707031 Z M 227.757813 66.722656 C 231.460938 66.789063 234.265625 65.441406 236.183594 62.679688 C 238.09375 59.917969 239.054688 55.679688 239.054688 49.964844 C 238.988281 44.375 238.015625 40.21875 236.132813 37.488281 C 234.25 34.761719 231.460938 33.398438 227.757813 33.398438 C 224.117188 33.464844 221.324219 34.84375 219.378906 37.539063 C 217.433594 40.234375 216.460938 44.375 216.460938 49.964844 C 216.460938 55.679688 217.414063 59.917969 219.328125 62.679688 C 221.246094 65.441406 224.054688 66.789063 227.757813 66.722656 Z M 227.757813 78.730469 C 219.910156 78.664063 213.574219 76.210938 208.738281 71.382813 C 203.90625 66.550781 201.523438 59.40625 201.585938 49.957031 C 201.585938 41.132813 203.859375 34.183594 208.410156 29.105469 C 212.960938 24.03125 219.410156 21.457031 227.757813 21.386719 C 235.601563 21.386719 241.90625 23.820313 246.679688 28.6875 C 251.445313 33.554688 253.863281 40.644531 253.925781 49.957031 C 253.863281 59.40625 251.433594 66.566406 246.628906 71.433594 C 241.828125 76.300781 235.539063 78.730469 227.757813 78.730469 Z M 58.183594 35.582031 C 59.222656 33.773438 60.730469 32.269531 62.535156 31.230469 C 62.617188 31.183594 62.703125 31.136719 62.785156 31.089844 C 62.867188 31.046875 62.953125 31 63.035156 30.957031 C 63.121094 30.914063 63.207031 30.871094 63.292969 30.832031 C 63.378906 30.789063 63.464844 30.75 63.550781 30.710938 C 63.636719 30.671875 63.726563 30.632813 63.8125 30.59375 C 63.902344 30.558594 63.988281 30.523438 64.078125 30.484375 C 64.167969 30.453125 64.257813 30.417969 64.347656 30.382813 C 64.4375 30.351563 64.527344 30.320313 64.617188 30.289063 L 64.621094 30.289063 C 64.710938 30.257813 64.800781 30.226563 64.894531 30.199219 C 64.984375 30.171875 65.078125 30.140625 65.171875 30.117188 C 65.265625 30.089844 65.359375 30.066406 65.453125 30.039063 C 65.546875 30.015625 65.640625 29.992188 65.734375 29.972656 C 65.832031 29.949219 65.925781 29.929688 66.023438 29.910156 C 66.117188 29.890625 66.214844 29.871094 66.308594 29.855469 C 66.40625 29.835938 66.503906 29.820313 66.601563 29.804688 C 66.699219 29.789063 66.796875 29.777344 66.894531 29.765625 C 66.992188 29.753906 67.089844 29.742188 67.191406 29.730469 C 67.289063 29.722656 67.386719 29.710938 67.488281 29.703125 C 67.585938 29.695313 67.6875 29.691406 67.785156 29.683594 L 67.789063 29.683594 C 67.886719 29.679688 67.988281 29.675781 68.089844 29.675781 C 68.191406 29.671875 68.292969 29.671875 68.394531 29.671875 C 68.496094 29.671875 68.59375 29.671875 68.695313 29.675781 C 68.796875 29.675781 68.898438 29.679688 68.996094 29.683594 L 69 29.683594 C 69.097656 29.691406 69.199219 29.695313 69.296875 29.703125 C 69.398438 29.710938 69.496094 29.71875 69.59375 29.730469 C 69.695313 29.742188 69.792969 29.753906 69.890625 29.765625 C 69.988281 29.777344 70.085938 29.789063 70.183594 29.804688 C 70.28125 29.820313 70.378906 29.835938 70.472656 29.855469 L 70.476563 29.855469 C 70.570313 29.871094 70.667969 29.890625 70.761719 29.910156 L 70.765625 29.910156 C 70.859375 29.929688 70.953125 29.949219 71.050781 29.972656 C 71.144531 29.992188 71.238281 30.015625 71.332031 30.039063 C 71.425781 30.066406 71.519531 30.089844 71.613281 30.117188 C 71.707031 30.144531 71.800781 30.171875 71.890625 30.199219 C 71.984375 30.226563 72.074219 30.257813 72.164063 30.289063 C 72.257813 30.320313 72.347656 30.351563 72.4375 30.382813 C 72.527344 30.417969 72.617188 30.453125 72.707031 30.484375 C 72.796875 30.523438 72.882813 30.558594 72.972656 30.59375 C 73.058594 30.632813 73.148438 30.671875 73.234375 30.710938 C 73.320313 30.75 73.40625 30.789063 73.492188 30.832031 C 73.578125 30.871094 73.664063 30.914063 73.75 30.957031 C 73.832031 31 73.917969 31.046875 74 31.089844 C 74.085938 31.136719 74.167969 31.183594 74.25 31.230469 C 74.332031 31.277344 74.414063 31.324219 74.492188 31.375 C 74.574219 31.421875 74.65625 31.472656 74.734375 31.523438 C 74.8125 31.574219 74.894531 31.628906 74.972656 31.679688 C 75.050781 31.734375 75.125 31.785156 75.203125 31.839844 L 75.203125 31.84375 C 75.28125 31.898438 75.355469 31.953125 75.433594 32.007813 C 75.507813 32.066406 75.582031 32.121094 75.65625 32.179688 C 75.730469 32.238281 75.804688 32.296875 75.878906 32.359375 C 75.949219 32.417969 76.019531 32.476563 76.09375 32.539063 C 76.164063 32.601563 76.234375 32.664063 76.304688 32.726563 C 76.375 32.789063 76.441406 32.855469 76.511719 32.917969 L 76.511719 32.921875 C 76.578125 32.984375 76.648438 33.050781 76.714844 33.117188 C 76.78125 33.183594 76.84375 33.25 76.910156 33.320313 C 76.976563 33.386719 77.039063 33.457031 77.101563 33.527344 C 77.164063 33.59375 77.226563 33.664063 77.289063 33.738281 C 77.351563 33.808594 77.410156 33.878906 77.472656 33.953125 C 77.53125 34.027344 77.589844 34.097656 77.648438 34.171875 C 77.707031 34.246094 77.765625 34.320313 77.820313 34.398438 C 77.878906 34.472656 77.933594 34.546875 77.988281 34.625 C 78.042969 34.703125 78.097656 34.78125 78.148438 34.859375 C 78.203125 34.9375 78.253906 35.015625 78.304688 35.09375 C 78.355469 35.175781 78.40625 35.253906 78.457031 35.335938 C 78.503906 35.417969 78.554688 35.5 78.601563 35.582031 C 78.648438 35.664063 78.695313 35.746094 78.738281 35.828125 C 78.785156 35.914063 78.828125 35.996094 78.871094 36.082031 C 78.914063 36.164063 78.957031 36.25 79 36.335938 C 79.039063 36.421875 79.082031 36.507813 79.121094 36.59375 C 79.160156 36.683594 79.199219 36.769531 79.234375 36.859375 C 79.273438 36.945313 79.308594 37.035156 79.34375 37.121094 L 79.34375 37.125 C 79.378906 37.210938 79.414063 37.300781 79.445313 37.390625 C 79.480469 37.480469 79.511719 37.574219 79.542969 37.664063 C 79.574219 37.753906 79.601563 37.847656 79.632813 37.9375 C 79.660156 38.03125 79.6875 38.121094 79.714844 38.214844 C 79.738281 38.308594 79.765625 38.402344 79.789063 38.496094 C 79.8125 38.589844 79.835938 38.683594 79.859375 38.78125 C 79.878906 38.875 79.902344 38.96875 79.921875 39.066406 C 79.941406 39.160156 79.960938 39.257813 79.976563 39.355469 C 79.992188 39.453125 80.011719 39.546875 80.023438 39.644531 C 80.039063 39.742188 80.054688 39.839844 80.066406 39.9375 C 80.078125 40.035156 80.089844 40.136719 80.097656 40.234375 C 80.109375 40.332031 80.117188 40.433594 80.125 40.53125 C 80.132813 40.632813 80.140625 40.730469 80.144531 40.832031 C 80.152344 40.933594 80.152344 41.03125 80.15625 41.132813 C 80.160156 41.234375 80.160156 41.335938 80.160156 41.4375 C 80.160156 41.539063 80.160156 41.640625 80.15625 41.742188 C 80.152344 41.84375 80.152344 41.941406 80.144531 42.042969 C 80.140625 42.144531 80.132813 42.242188 80.125 42.34375 C 80.117188 42.441406 80.109375 42.539063 80.097656 42.640625 C 80.089844 42.738281 80.078125 42.835938 80.066406 42.933594 C 80.054688 43.035156 80.039063 43.132813 80.023438 43.226563 L 80.023438 43.230469 C 80.011719 43.328125 79.992188 43.421875 79.976563 43.519531 C 79.960938 43.617188 79.941406 43.710938 79.921875 43.808594 C 79.902344 43.902344 79.878906 44 79.859375 44.09375 C 79.835938 44.1875 79.8125 44.28125 79.789063 44.378906 C 79.765625 44.472656 79.738281 44.566406 79.714844 44.65625 C 79.6875 44.75 79.660156 44.84375 79.632813 44.933594 L 79.632813 44.9375 C 79.601563 45.027344 79.574219 45.117188 79.542969 45.210938 C 79.511719 45.300781 79.480469 45.390625 79.445313 45.480469 C 79.414063 45.574219 79.378906 45.660156 79.34375 45.75 C 79.308594 45.839844 79.273438 45.929688 79.234375 46.015625 C 79.199219 46.105469 79.160156 46.191406 79.121094 46.277344 L 79.121094 46.28125 C 79.082031 46.367188 79.039063 46.453125 79 46.539063 C 78.957031 46.625 78.914063 46.707031 78.871094 46.792969 C 78.828125 46.878906 78.785156 46.960938 78.738281 47.042969 L 78.738281 47.046875 C 78.695313 47.128906 78.648438 47.210938 78.601563 47.292969 C 78.554688 47.375 78.503906 47.457031 78.457031 47.539063 C 78.40625 47.617188 78.355469 47.699219 78.304688 47.777344 C 78.253906 47.859375 78.203125 47.9375 78.148438 48.015625 C 78.097656 48.09375 78.042969 48.171875 77.988281 48.246094 L 77.988281 48.25 C 77.933594 48.324219 77.878906 48.402344 77.820313 48.476563 C 77.765625 48.550781 77.707031 48.628906 77.648438 48.703125 C 77.589844 48.777344 77.53125 48.847656 77.472656 48.921875 C 77.410156 48.996094 77.351563 49.066406 77.289063 49.136719 C 77.226563 49.207031 77.164063 49.277344 77.101563 49.347656 C 77.039063 49.417969 76.976563 49.488281 76.910156 49.554688 C 76.84375 49.621094 76.78125 49.691406 76.714844 49.757813 C 76.648438 49.824219 76.578125 49.890625 76.511719 49.953125 C 76.441406 50.019531 76.375 50.085938 76.304688 50.148438 C 76.234375 50.210938 76.164063 50.273438 76.09375 50.335938 C 76.019531 50.394531 75.949219 50.457031 75.878906 50.515625 C 75.804688 50.578125 75.730469 50.636719 75.65625 50.695313 C 75.582031 50.753906 75.507813 50.808594 75.433594 50.867188 C 75.355469 50.921875 75.28125 50.976563 75.203125 51.03125 C 75.125 51.089844 75.050781 51.140625 74.972656 51.195313 C 74.894531 51.246094 74.8125 51.296875 74.734375 51.351563 C 74.65625 51.402344 74.574219 51.453125 74.492188 51.5 C 74.414063 51.550781 74.332031 51.597656 74.25 51.644531 C 74.167969 51.691406 74.085938 51.738281 74 51.785156 C 73.917969 51.828125 73.832031 51.875 73.75 51.917969 C 73.664063 51.960938 73.578125 52.003906 73.492188 52.042969 C 73.40625 52.085938 73.320313 52.125 73.234375 52.164063 C 73.148438 52.203125 73.058594 52.242188 72.972656 52.28125 C 72.882813 52.316406 72.796875 52.351563 72.707031 52.386719 C 72.617188 52.421875 72.527344 52.457031 72.4375 52.492188 C 72.347656 52.523438 72.257813 52.554688 72.164063 52.585938 C 72.074219 52.617188 71.984375 52.648438 71.890625 52.675781 C 71.800781 52.703125 71.707031 52.730469 71.613281 52.757813 C 71.519531 52.785156 71.425781 52.808594 71.332031 52.835938 C 71.238281 52.859375 71.144531 52.882813 71.050781 52.902344 C 70.953125 52.925781 70.859375 52.945313 70.765625 52.964844 L 70.761719 52.964844 C 70.667969 52.984375 70.570313 53.003906 70.476563 53.023438 L 70.472656 53.023438 C 70.378906 53.039063 70.28125 53.054688 70.183594 53.070313 C 70.085938 53.085938 69.988281 53.097656 69.890625 53.109375 C 69.792969 53.121094 69.695313 53.132813 69.59375 53.144531 C 69.496094 53.15625 69.398438 53.164063 69.296875 53.171875 C 69.199219 53.179688 69.097656 53.183594 69 53.191406 L 68.996094 53.191406 C 68.898438 53.195313 68.796875 53.199219 68.695313 53.203125 C 68.59375 53.203125 68.492188 53.207031 68.394531 53.207031 C 68.292969 53.207031 68.191406 53.203125 68.089844 53.203125 C 67.988281 53.199219 67.886719 53.195313 67.789063 53.191406 L 67.785156 53.191406 C 67.6875 53.183594 67.585938 53.179688 67.488281 53.171875 C 67.386719 53.164063 67.289063 53.15625 67.191406 53.144531 C 67.089844 53.132813 66.992188 53.121094 66.894531 53.109375 C 66.796875 53.097656 66.699219 53.085938 66.601563 53.070313 C 66.503906 53.054688 66.40625 53.039063 66.308594 53.023438 C 66.214844 53.003906 66.117188 52.984375 66.023438 52.964844 C 65.925781 52.945313 65.832031 52.925781 65.734375 52.902344 C 65.640625 52.882813 65.546875 52.859375 65.453125 52.835938 C 65.359375 52.808594 65.265625 52.785156 65.171875 52.757813 C 65.078125 52.730469 64.984375 52.703125 64.894531 52.675781 C 64.800781 52.648438 64.710938 52.617188 64.621094 52.585938 L 64.617188 52.585938 C 64.527344 52.554688 64.4375 52.523438 64.347656 52.492188 C 64.257813 52.457031 64.167969 52.421875 64.078125 52.386719 C 63.988281 52.351563 63.902344 52.316406 63.8125 52.28125 C 63.726563 52.242188 63.636719 52.203125 63.550781 52.164063 C 63.464844 52.125 63.378906 52.085938 63.292969 52.042969 C 63.207031 52.003906 63.121094 51.960938 63.035156 51.917969 C 62.953125 51.875 62.867188 51.828125 62.785156 51.785156 C 62.703125 51.738281 62.617188 51.691406 62.535156 51.644531 C 62.453125 51.597656 62.371094 51.550781 62.292969 51.5 C 62.210938 51.453125 62.128906 51.402344 62.050781 51.351563 C 61.972656 51.296875 61.894531 51.246094 61.816406 51.195313 L 61.8125 51.195313 C 61.734375 51.140625 61.65625 51.089844 61.582031 51.03125 C 61.503906 50.976563 61.429688 50.921875 61.351563 50.867188 C 61.277344 50.808594 61.203125 50.753906 61.128906 50.695313 C 61.054688 50.636719 60.980469 50.578125 60.910156 50.515625 C 60.835938 50.457031 60.765625 50.394531 60.691406 50.335938 C 60.621094 50.273438 60.550781 50.210938 60.480469 50.148438 C 60.410156 50.085938 60.34375 50.019531 60.273438 49.953125 C 60.207031 49.890625 60.140625 49.824219 60.074219 49.757813 C 60.007813 49.691406 59.941406 49.625 59.875 49.554688 C 59.808594 49.488281 59.746094 49.417969 59.683594 49.347656 C 59.621094 49.277344 59.558594 49.207031 59.496094 49.136719 C 59.433594 49.066406 59.375 48.996094 59.3125 48.921875 C 59.253906 48.847656 59.195313 48.777344 59.136719 48.703125 C 59.078125 48.628906 59.019531 48.550781 58.964844 48.476563 C 58.90625 48.402344 58.851563 48.324219 58.796875 48.25 L 58.796875 48.246094 C 58.742188 48.171875 58.6875 48.09375 58.636719 48.015625 C 58.582031 47.9375 58.53125 47.859375 58.480469 47.777344 C 58.429688 47.699219 58.378906 47.621094 58.328125 47.539063 C 58.28125 47.457031 58.230469 47.375 58.183594 47.292969 C 58.136719 47.210938 58.089844 47.128906 58.046875 47.046875 L 58.046875 47.042969 C 58 46.960938 57.957031 46.878906 57.914063 46.792969 C 57.871094 46.707031 57.828125 46.625 57.785156 46.539063 C 57.746094 46.453125 57.703125 46.367188 57.664063 46.28125 L 57.664063 46.277344 C 57.625 46.191406 57.589844 46.105469 57.550781 46.015625 C 57.511719 45.929688 57.476563 45.839844 57.441406 45.75 C 57.40625 45.660156 57.371094 45.574219 57.339844 45.480469 C 57.304688 45.390625 57.273438 45.300781 57.242188 45.210938 C 57.214844 45.117188 57.183594 45.027344 57.15625 44.9375 L 57.15625 44.933594 C 57.125 44.84375 57.097656 44.75 57.070313 44.65625 C 57.046875 44.566406 57.019531 44.472656 56.996094 44.378906 C 56.972656 44.28125 56.949219 44.1875 56.925781 44.09375 C 56.90625 44 56.882813 43.902344 56.863281 43.808594 C 56.84375 43.710938 56.828125 43.617188 56.808594 43.519531 C 56.792969 43.421875 56.777344 43.328125 56.761719 43.230469 L 56.761719 43.226563 C 56.746094 43.132813 56.730469 43.035156 56.71875 42.933594 C 56.707031 42.835938 56.695313 42.738281 56.6875 42.640625 C 56.675781 42.539063 56.667969 42.441406 56.660156 42.34375 C 56.652344 42.242188 56.644531 42.144531 56.640625 42.042969 C 56.636719 41.941406 56.632813 41.84375 56.628906 41.742188 C 56.628906 41.640625 56.625 41.539063 56.625 41.4375 C 56.625 41.335938 56.628906 41.234375 56.628906 41.132813 C 56.632813 41.03125 56.636719 40.933594 56.640625 40.832031 C 56.644531 40.730469 56.652344 40.632813 56.660156 40.53125 C 56.667969 40.433594 56.675781 40.332031 56.6875 40.234375 C 56.695313 40.136719 56.707031 40.035156 56.71875 39.9375 C 56.730469 39.839844 56.746094 39.742188 56.761719 39.644531 C 56.777344 39.546875 56.792969 39.453125 56.808594 39.355469 C 56.828125 39.257813 56.84375 39.160156 56.863281 39.066406 C 56.882813 38.96875 56.90625 38.875 56.925781 38.78125 C 56.949219 38.683594 56.972656 38.589844 56.996094 38.496094 C 57.019531 38.402344 57.046875 38.308594 57.070313 38.214844 C 57.097656 38.121094 57.125 38.03125 57.15625 37.9375 C 57.183594 37.847656 57.214844 37.753906 57.242188 37.664063 C 57.273438 37.574219 57.304688 37.480469 57.339844 37.390625 C 57.371094 37.300781 57.40625 37.210938 57.441406 37.125 L 57.441406 37.121094 C 57.476563 37.035156 57.511719 36.945313 57.550781 36.859375 C 57.589844 36.769531 57.625 36.683594 57.664063 36.59375 C 57.703125 36.507813 57.746094 36.421875 57.785156 36.335938 C 57.828125 36.25 57.871094 36.164063 57.914063 36.082031 C 57.957031 35.996094 58 35.914063 58.046875 35.828125 C 58.089844 35.746094 58.136719 35.664063 58.183594 35.582031 Z M 68.394531 33.921875 C 68.457031 33.921875 68.523438 33.921875 68.585938 33.925781 C 68.652344 33.925781 68.714844 33.929688 68.78125 33.929688 C 68.84375 33.933594 68.90625 33.9375 68.96875 33.945313 C 69.035156 33.949219 69.097656 33.953125 69.160156 33.960938 C 69.222656 33.96875 69.285156 33.972656 69.347656 33.980469 C 69.410156 33.988281 69.472656 34 69.535156 34.007813 C 69.597656 34.015625 69.660156 34.027344 69.722656 34.039063 C 69.785156 34.050781 69.84375 34.0625 69.90625 34.074219 C 69.96875 34.085938 70.027344 34.097656 70.089844 34.113281 C 70.148438 34.128906 70.210938 34.144531 70.269531 34.15625 C 70.332031 34.171875 70.390625 34.191406 70.449219 34.207031 C 70.507813 34.222656 70.566406 34.242188 70.628906 34.261719 C 70.6875 34.277344 70.742188 34.296875 70.800781 34.316406 C 70.859375 34.335938 70.917969 34.355469 70.976563 34.378906 C 71.035156 34.398438 71.089844 34.421875 71.148438 34.441406 C 71.203125 34.464844 71.261719 34.488281 71.316406 34.511719 C 71.375 34.535156 71.429688 34.558594 71.484375 34.585938 C 71.539063 34.609375 71.59375 34.636719 71.652344 34.664063 C 71.707031 34.6875 71.757813 34.714844 71.8125 34.742188 C 71.867188 34.773438 71.921875 34.800781 71.972656 34.828125 C 72.027344 34.859375 72.082031 34.886719 72.132813 34.917969 C 72.183594 34.949219 72.238281 34.976563 72.289063 35.011719 C 72.339844 35.039063 72.390625 35.074219 72.441406 35.105469 C 72.492188 35.136719 72.542969 35.171875 72.59375 35.207031 C 72.644531 35.238281 72.695313 35.273438 72.742188 35.308594 C 72.792969 35.34375 72.839844 35.378906 72.890625 35.414063 C 72.9375 35.453125 72.984375 35.488281 73.03125 35.523438 C 73.078125 35.5625 73.125 35.601563 73.171875 35.636719 C 73.21875 35.675781 73.265625 35.714844 73.3125 35.753906 L 73.445313 35.875 C 73.488281 35.914063 73.535156 35.957031 73.578125 35.996094 C 73.621094 36.039063 73.664063 36.082031 73.707031 36.125 C 73.75 36.167969 73.792969 36.207031 73.832031 36.253906 C 73.875 36.296875 73.914063 36.339844 73.957031 36.382813 C 73.996094 36.429688 74.035156 36.472656 74.074219 36.519531 C 74.113281 36.566406 74.152344 36.609375 74.191406 36.65625 C 74.230469 36.703125 74.269531 36.75 74.304688 36.796875 C 74.34375 36.84375 74.378906 36.894531 74.414063 36.941406 C 74.453125 36.988281 74.488281 37.039063 74.523438 37.085938 C 74.554688 37.136719 74.589844 37.1875 74.625 37.234375 C 74.660156 37.285156 74.691406 37.335938 74.722656 37.386719 L 74.820313 37.539063 C 74.851563 37.59375 74.882813 37.644531 74.914063 37.695313 C 74.941406 37.75 74.972656 37.800781 75 37.855469 C 75.03125 37.910156 75.058594 37.960938 75.085938 38.015625 L 75.167969 38.179688 C 75.195313 38.234375 75.21875 38.289063 75.246094 38.34375 C 75.269531 38.402344 75.292969 38.457031 75.316406 38.511719 C 75.34375 38.570313 75.363281 38.625 75.386719 38.679688 L 75.386719 38.683594 L 75.453125 38.851563 L 75.453125 38.855469 C 75.472656 38.910156 75.492188 38.96875 75.515625 39.027344 C 75.53125 39.085938 75.550781 39.144531 75.570313 39.203125 C 75.589844 39.261719 75.605469 39.320313 75.625 39.378906 C 75.640625 39.441406 75.65625 39.5 75.671875 39.558594 C 75.6875 39.621094 75.703125 39.679688 75.714844 39.742188 C 75.730469 39.800781 75.742188 39.863281 75.757813 39.921875 C 75.769531 39.984375 75.78125 40.046875 75.792969 40.105469 C 75.800781 40.167969 75.8125 40.230469 75.824219 40.292969 C 75.832031 40.355469 75.839844 40.417969 75.847656 40.480469 C 75.855469 40.542969 75.863281 40.605469 75.871094 40.667969 C 75.878906 40.730469 75.882813 40.796875 75.886719 40.859375 C 75.890625 40.921875 75.894531 40.988281 75.898438 41.050781 C 75.902344 41.113281 75.90625 41.179688 75.90625 41.242188 C 75.90625 41.308594 75.910156 41.371094 75.910156 41.4375 C 75.910156 41.503906 75.90625 41.566406 75.90625 41.632813 C 75.90625 41.695313 75.902344 41.761719 75.898438 41.824219 C 75.894531 41.886719 75.890625 41.953125 75.886719 42.015625 C 75.882813 42.078125 75.875 42.144531 75.871094 42.207031 C 75.863281 42.269531 75.855469 42.332031 75.847656 42.394531 C 75.839844 42.457031 75.832031 42.519531 75.824219 42.582031 C 75.8125 42.644531 75.800781 42.707031 75.792969 42.765625 C 75.78125 42.828125 75.769531 42.890625 75.757813 42.953125 C 75.742188 43.011719 75.730469 43.074219 75.714844 43.132813 C 75.703125 43.195313 75.6875 43.253906 75.671875 43.316406 C 75.65625 43.375 75.640625 43.433594 75.625 43.492188 C 75.605469 43.554688 75.589844 43.613281 75.570313 43.671875 C 75.550781 43.730469 75.53125 43.789063 75.515625 43.847656 C 75.492188 43.90625 75.472656 43.964844 75.453125 44.019531 C 75.429688 44.078125 75.410156 44.136719 75.386719 44.191406 C 75.363281 44.25 75.34375 44.304688 75.316406 44.363281 C 75.292969 44.417969 75.269531 44.472656 75.246094 44.53125 C 75.21875 44.585938 75.195313 44.640625 75.167969 44.695313 L 75.085938 44.859375 C 75.058594 44.910156 75.03125 44.964844 75 45.019531 C 74.972656 45.074219 74.941406 45.125 74.914063 45.175781 C 74.882813 45.230469 74.851563 45.28125 74.820313 45.335938 L 74.722656 45.488281 C 74.691406 45.539063 74.660156 45.589844 74.625 45.640625 C 74.589844 45.6875 74.554688 45.738281 74.523438 45.789063 L 74.414063 45.933594 C 74.378906 45.980469 74.34375 46.03125 74.304688 46.078125 L 74.191406 46.21875 C 74.152344 46.265625 74.113281 46.308594 74.074219 46.355469 L 73.957031 46.492188 C 73.914063 46.535156 73.875 46.578125 73.832031 46.621094 C 73.789063 46.664063 73.75 46.710938 73.707031 46.753906 C 73.664063 46.792969 73.621094 46.835938 73.578125 46.878906 C 73.535156 46.917969 73.488281 46.960938 73.445313 47 C 73.402344 47.039063 73.355469 47.082031 73.3125 47.121094 C 73.265625 47.160156 73.21875 47.199219 73.171875 47.238281 C 73.125 47.277344 73.078125 47.3125 73.03125 47.347656 C 72.984375 47.386719 72.9375 47.421875 72.890625 47.460938 C 72.839844 47.496094 72.792969 47.53125 72.742188 47.566406 L 72.59375 47.667969 C 72.542969 47.703125 72.492188 47.734375 72.441406 47.769531 L 72.289063 47.863281 C 72.238281 47.898438 72.183594 47.925781 72.132813 47.957031 C 72.082031 47.988281 72.027344 48.015625 71.972656 48.046875 C 71.921875 48.074219 71.867188 48.101563 71.8125 48.132813 L 71.652344 48.210938 C 71.59375 48.238281 71.539063 48.265625 71.484375 48.289063 C 71.429688 48.3125 71.375 48.339844 71.316406 48.363281 C 71.261719 48.386719 71.203125 48.410156 71.148438 48.433594 L 70.976563 48.496094 C 70.917969 48.519531 70.859375 48.539063 70.800781 48.558594 C 70.742188 48.578125 70.6875 48.597656 70.628906 48.617188 C 70.566406 48.632813 70.507813 48.652344 70.449219 48.667969 C 70.390625 48.683594 70.332031 48.703125 70.269531 48.71875 C 70.210938 48.730469 70.148438 48.746094 70.089844 48.761719 C 70.027344 48.773438 69.96875 48.789063 69.90625 48.800781 C 69.84375 48.8125 69.785156 48.824219 69.722656 48.835938 C 69.660156 48.847656 69.597656 48.855469 69.535156 48.867188 C 69.472656 48.875 69.410156 48.886719 69.347656 48.894531 C 69.285156 48.902344 69.222656 48.910156 69.160156 48.914063 C 69.097656 48.921875 69.035156 48.925781 68.96875 48.929688 C 68.90625 48.9375 68.84375 48.941406 68.78125 48.945313 C 68.714844 48.949219 68.652344 48.949219 68.585938 48.953125 C 68.523438 48.953125 68.457031 48.953125 68.394531 48.953125 C 68.328125 48.953125 68.261719 48.953125 68.199219 48.953125 C 68.132813 48.949219 68.070313 48.949219 68.007813 48.945313 C 67.941406 48.941406 67.878906 48.9375 67.816406 48.929688 C 67.75 48.925781 67.6875 48.921875 67.625 48.914063 C 67.5625 48.910156 67.5 48.902344 67.4375 48.894531 L 67.433594 48.894531 C 67.371094 48.886719 67.308594 48.875 67.25 48.867188 C 67.1875 48.855469 67.125 48.847656 67.0625 48.835938 C 67 48.824219 66.941406 48.8125 66.878906 48.800781 C 66.816406 48.789063 66.757813 48.773438 66.695313 48.761719 C 66.636719 48.746094 66.574219 48.730469 66.515625 48.71875 C 66.453125 48.703125 66.394531 48.683594 66.335938 48.667969 C 66.277344 48.652344 66.21875 48.632813 66.160156 48.617188 L 66.15625 48.617188 C 66.097656 48.597656 66.039063 48.578125 65.984375 48.558594 L 65.980469 48.558594 C 65.925781 48.539063 65.867188 48.519531 65.808594 48.496094 L 65.636719 48.433594 C 65.582031 48.410156 65.523438 48.386719 65.46875 48.363281 C 65.410156 48.339844 65.355469 48.3125 65.300781 48.289063 C 65.246094 48.265625 65.191406 48.238281 65.136719 48.210938 L 64.972656 48.132813 C 64.917969 48.101563 64.863281 48.074219 64.8125 48.046875 L 64.808594 48.046875 C 64.757813 48.015625 64.703125 47.988281 64.652344 47.957031 C 64.597656 47.925781 64.546875 47.898438 64.496094 47.863281 L 64.34375 47.769531 C 64.292969 47.734375 64.242188 47.703125 64.191406 47.667969 C 64.140625 47.636719 64.089844 47.601563 64.042969 47.566406 L 63.898438 47.460938 C 63.847656 47.421875 63.800781 47.386719 63.753906 47.347656 C 63.707031 47.3125 63.660156 47.277344 63.613281 47.238281 C 63.566406 47.199219 63.519531 47.160156 63.472656 47.121094 L 63.339844 47 C 63.296875 46.960938 63.25 46.917969 63.207031 46.878906 C 63.164063 46.835938 63.121094 46.792969 63.078125 46.753906 C 63.035156 46.710938 62.996094 46.664063 62.953125 46.621094 C 62.910156 46.578125 62.871094 46.535156 62.828125 46.492188 L 62.710938 46.355469 C 62.671875 46.308594 62.632813 46.265625 62.59375 46.21875 C 62.554688 46.171875 62.519531 46.125 62.480469 46.078125 C 62.445313 46.03125 62.40625 45.980469 62.371094 45.933594 C 62.335938 45.886719 62.296875 45.835938 62.265625 45.789063 C 62.226563 45.738281 62.195313 45.6875 62.160156 45.640625 C 62.128906 45.589844 62.09375 45.539063 62.0625 45.488281 C 62.027344 45.4375 61.996094 45.386719 61.964844 45.335938 C 61.933594 45.28125 61.902344 45.230469 61.871094 45.175781 C 61.84375 45.125 61.8125 45.074219 61.785156 45.019531 C 61.753906 44.964844 61.726563 44.910156 61.699219 44.859375 C 61.671875 44.804688 61.644531 44.75 61.617188 44.695313 L 61.539063 44.53125 C 61.515625 44.472656 61.492188 44.417969 61.46875 44.363281 C 61.445313 44.304688 61.421875 44.25 61.398438 44.191406 C 61.375 44.136719 61.355469 44.078125 61.332031 44.019531 C 61.3125 43.964844 61.289063 43.90625 61.273438 43.847656 C 61.253906 43.789063 61.234375 43.730469 61.214844 43.671875 C 61.195313 43.613281 61.179688 43.554688 61.160156 43.492188 C 61.144531 43.433594 61.128906 43.375 61.113281 43.316406 C 61.097656 43.253906 61.082031 43.195313 61.070313 43.132813 C 61.054688 43.074219 61.042969 43.011719 61.03125 42.953125 C 61.015625 42.890625 61.003906 42.828125 60.992188 42.765625 C 60.984375 42.707031 60.972656 42.644531 60.964844 42.582031 C 60.953125 42.519531 60.945313 42.457031 60.9375 42.394531 C 60.929688 42.332031 60.921875 42.269531 60.914063 42.207031 C 60.910156 42.144531 60.902344 42.078125 60.898438 42.015625 C 60.894531 41.953125 60.890625 41.886719 60.886719 41.824219 C 60.882813 41.761719 60.882813 41.695313 60.878906 41.632813 C 60.878906 41.566406 60.878906 41.503906 60.878906 41.4375 C 60.878906 41.371094 60.878906 41.308594 60.878906 41.242188 C 60.882813 41.179688 60.882813 41.113281 60.886719 41.050781 C 60.890625 40.988281 60.894531 40.921875 60.898438 40.859375 C 60.902344 40.796875 60.910156 40.730469 60.914063 40.667969 C 60.921875 40.605469 60.929688 40.542969 60.9375 40.480469 C 60.945313 40.417969 60.953125 40.355469 60.964844 40.292969 C 60.972656 40.230469 60.984375 40.167969 60.992188 40.105469 C 61.003906 40.046875 61.015625 39.984375 61.03125 39.921875 C 61.042969 39.863281 61.054688 39.800781 61.070313 39.742188 C 61.082031 39.679688 61.097656 39.621094 61.113281 39.558594 C 61.128906 39.5 61.144531 39.441406 61.160156 39.378906 C 61.179688 39.320313 61.195313 39.261719 61.214844 39.203125 C 61.234375 39.144531 61.253906 39.085938 61.273438 39.027344 C 61.289063 38.96875 61.3125 38.910156 61.332031 38.855469 L 61.332031 38.851563 L 61.398438 38.683594 L 61.398438 38.679688 C 61.421875 38.625 61.445313 38.570313 61.46875 38.511719 C 61.492188 38.457031 61.515625 38.402344 61.539063 38.34375 C 61.566406 38.289063 61.59375 38.234375 61.617188 38.179688 L 61.699219 38.015625 C 61.726563 37.960938 61.753906 37.910156 61.785156 37.855469 C 61.8125 37.800781 61.84375 37.75 61.871094 37.695313 L 61.964844 37.539063 C 61.996094 37.488281 62.027344 37.4375 62.0625 37.386719 C 62.09375 37.335938 62.128906 37.285156 62.160156 37.234375 C 62.195313 37.1875 62.226563 37.136719 62.265625 37.085938 C 62.296875 37.039063 62.335938 36.988281 62.371094 36.941406 C 62.40625 36.894531 62.445313 36.84375 62.480469 36.796875 C 62.519531 36.75 62.554688 36.703125 62.59375 36.65625 C 62.632813 36.609375 62.671875 36.566406 62.710938 36.519531 L 62.828125 36.382813 C 62.871094 36.339844 62.910156 36.296875 62.953125 36.253906 C 62.996094 36.207031 63.035156 36.164063 63.078125 36.125 C 63.121094 36.082031 63.164063 36.039063 63.207031 35.996094 C 63.25 35.957031 63.296875 35.914063 63.339844 35.875 L 63.472656 35.753906 C 63.519531 35.714844 63.566406 35.675781 63.613281 35.636719 L 63.753906 35.523438 C 63.800781 35.488281 63.847656 35.453125 63.898438 35.414063 C 63.945313 35.378906 63.992188 35.34375 64.042969 35.308594 C 64.089844 35.273438 64.140625 35.238281 64.191406 35.207031 C 64.242188 35.171875 64.292969 35.136719 64.34375 35.105469 C 64.394531 35.074219 64.445313 35.039063 64.496094 35.011719 C 64.546875 34.976563 64.597656 34.949219 64.652344 34.917969 C 64.703125 34.886719 64.757813 34.859375 64.808594 34.828125 L 64.8125 34.828125 C 64.863281 34.800781 64.917969 34.773438 64.972656 34.742188 C 65.027344 34.714844 65.082031 34.6875 65.136719 34.664063 C 65.191406 34.636719 65.246094 34.609375 65.300781 34.585938 C 65.355469 34.558594 65.410156 34.535156 65.46875 34.511719 C 65.523438 34.488281 65.582031 34.464844 65.636719 34.441406 C 65.695313 34.421875 65.75 34.398438 65.808594 34.378906 C 65.867188 34.355469 65.925781 34.335938 65.980469 34.316406 L 65.984375 34.316406 C 66.039063 34.296875 66.097656 34.277344 66.15625 34.261719 L 66.160156 34.261719 C 66.21875 34.242188 66.277344 34.222656 66.335938 34.207031 C 66.394531 34.191406 66.457031 34.171875 66.515625 34.15625 C 66.574219 34.144531 66.636719 34.128906 66.695313 34.113281 C 66.757813 34.097656 66.816406 34.085938 66.878906 34.074219 C 66.941406 34.0625 67 34.050781 67.0625 34.039063 C 67.125 34.027344 67.1875 34.015625 67.25 34.007813 C 67.3125 34 67.371094 33.988281 67.433594 33.980469 L 67.4375 33.980469 C 67.5 33.972656 67.5625 33.96875 67.625 33.960938 C 67.6875 33.953125 67.75 33.949219 67.816406 33.945313 C 67.878906 33.9375 67.941406 33.933594 68.007813 33.929688 C 68.070313 33.929688 68.132813 33.925781 68.199219 33.925781 C 68.261719 33.921875 68.328125 33.921875 68.394531 33.921875 Z M 13.945313 5.878906 L 55.203125 5.863281 L 61.917969 17.957031 Z M 85.164063 19.671875 L 128.335938 7.523438 C 129.191406 7.28125 130.175781 6.585938 130.691406 5.863281 C 131.289063 5.03125 131.503906 4.003906 131.476563 3.332031 C 131.398438 1.351563 129.554688 0.800781 127.222656 0.800781 L 84.191406 0.800781 C 80.113281 0.800781 77.703125 2.992188 76.078125 5.863281 L 69.242188 17.957031 L 60.214844 3.984375 C 58.992188 2.089844 56.496094 0.800781 54.238281 0.800781 L 5.34375 0.800781 C 2.625 0.800781 1.011719 1.796875 0.988281 3.332031 C 0.945313 5.863281 2.050781 7.378906 5.171875 8.199219 L 48.726563 19.671875 L 25.070313 19.671875 L 32.859375 33.386719 L 51.28125 28.25 L 115.144531 28.25 C 114.773438 23.777344 113.652344 25.011719 109.140625 23.960938 L 107.558594 19.609375 L 85.164063 19.671875 "/>
</g>
</svg>
