<svg width="94" height="23" viewBox="0 0 94 23" fill="none" xmlns="http://www.w3.org/2000/svg">
<path d="M10.8039 15.1402C9.39529 15.1402 7.98665 15.1345 6.57801 15.1459C6.26829 15.1488 6.04195 15.0545 5.88411 14.806C5.63097 14.4032 5.37188 14.0004 5.1247 13.5947C5.03238 13.4404 5.10087 13.3262 5.2736 13.309C5.46122 13.289 5.6548 13.289 5.84242 13.3147C5.91687 13.3233 5.99728 13.409 6.04493 13.4804C6.22957 13.749 6.33976 14.1261 6.59588 14.2689C6.84306 14.406 7.23319 14.3118 7.56078 14.3118C9.9641 14.3118 12.3674 14.3089 14.7678 14.3175C14.9762 14.3175 15.1043 14.2632 15.1966 14.0861C15.2979 13.8947 15.4289 13.7175 15.5272 13.5233C15.6106 13.3576 15.7237 13.2862 15.9143 13.3005C16.0513 13.3119 16.1913 13.2919 16.3283 13.309C16.504 13.3319 16.5755 13.4433 16.4802 13.5947C16.2181 14.0232 15.9471 14.4432 15.6731 14.866C15.5391 15.0745 15.3366 15.1488 15.0805 15.1459C13.6569 15.1345 12.2304 15.1402 10.8039 15.1402Z" fill="white"/>
<path d="M8.96962 10.1837C8.95771 10.1637 8.9458 10.1408 8.93091 10.1208C8.83859 9.96372 8.74626 9.80374 8.66288 9.64091C8.5378 9.40094 8.511 9.16669 8.6867 8.91815C8.84752 8.68961 8.75818 8.38394 8.52886 8.2211C8.31444 8.06969 8.07322 8.11254 7.88857 8.34108C7.49547 8.82673 7.46271 9.48379 7.80221 10.058C7.81412 10.078 7.82603 10.1008 7.84092 10.1208C7.93325 10.278 8.02557 10.4379 8.10895 10.6008C8.23403 10.8407 8.26084 11.075 8.08513 11.3235C7.92431 11.5521 8.01365 11.8577 8.24297 12.0206C8.45739 12.172 8.69862 12.1291 8.88326 11.9006C9.27637 11.415 9.30615 10.7608 8.96962 10.1837Z" fill="white"/>
<path d="M11.3578 10.1837C11.3459 10.1637 11.334 10.1408 11.3191 10.1208C11.2268 9.96372 11.1344 9.80374 11.0511 9.64091C10.926 9.40094 10.8992 9.16669 11.0749 8.91815C11.2357 8.68961 11.1464 8.38394 10.917 8.2211C10.7026 8.06969 10.4614 8.11254 10.2768 8.34108C9.88365 8.82673 9.85089 9.48379 10.1904 10.058C10.2023 10.078 10.2142 10.1008 10.2291 10.1208C10.3214 10.278 10.4137 10.4379 10.4971 10.6008C10.6222 10.8407 10.649 11.075 10.4733 11.3235C10.3125 11.5521 10.4018 11.8577 10.6312 12.0206C10.8456 12.172 11.0868 12.1291 11.2714 11.9006C11.6646 11.415 11.6943 10.7608 11.3578 10.1837Z" fill="white"/>
<path d="M13.7431 10.1837C13.7312 10.1637 13.7192 10.1408 13.7043 10.1208C13.612 9.96372 13.5197 9.80374 13.4363 9.64091C13.3112 9.40094 13.2844 9.16669 13.4601 8.91815C13.621 8.68961 13.5316 8.38394 13.3023 8.2211C13.0879 8.06969 12.8467 8.11254 12.662 8.34108C12.2689 8.82673 12.2361 9.48379 12.5756 10.058C12.5876 10.078 12.5995 10.1008 12.6144 10.1208C12.7067 10.278 12.799 10.4379 12.8824 10.6008C13.0075 10.8407 13.0343 11.075 12.8586 11.3235C12.6977 11.5521 12.7871 11.8577 13.0164 12.0206C13.2308 12.172 13.4721 12.1291 13.6567 11.9006C14.0528 11.415 14.0826 10.7608 13.7431 10.1837Z" fill="white"/>
<path d="M18.7852 1.23071C19.4314 4.0389 20.0419 6.80138 20.2712 9.67527C20.4886 12.4435 20.4023 15.2345 20.0121 17.9856C19.8305 19.2568 19.5863 20.5166 19.2795 21.765" stroke="white" stroke-width="2" stroke-miterlimit="10"/>
<path d="M92.2787 1.50781H1V21.7679H92.2787V1.50781Z" stroke="white" stroke-width="2" stroke-miterlimit="10"/>
<path d="M28.9585 14.0829C28.348 15.1485 27.0763 15.2913 26.7368 15.3313C26.5075 15.3599 26.2663 15.3799 26.025 15.3799C24.6253 15.3799 23.8332 14.9285 23.3626 14.5628C23.172 14.4086 23.0827 14.3143 22.8027 13.9972L24.1429 13.1916C24.1727 13.2202 24.3126 13.3744 24.4526 13.4801C24.9142 13.8458 25.5932 14.0458 26.1829 14.0458C26.2633 14.0458 26.5045 14.0458 26.7338 13.9772C26.7845 13.9686 27.4843 13.7744 27.4843 13.2573C27.4843 12.6345 26.5432 12.6145 25.9119 12.5288C25.5813 12.4917 25.2418 12.4317 24.9112 12.3574C24.402 12.2317 23.9314 12.0489 23.58 11.6461C23.5085 11.569 23.3686 11.3976 23.2792 11.1462C23.2494 11.049 23.1899 10.8291 23.1899 10.552C23.1899 10.4948 23.1988 10.2748 23.2286 10.0806C23.309 9.64922 23.4996 9.30355 23.8391 8.99502C24.1905 8.67792 24.8785 8.28369 26.0399 8.28369C26.4718 8.28369 27.4099 8.33226 28.3718 8.95503C28.613 9.10929 28.753 9.22356 29.152 9.56066L27.8506 10.4548C27.4605 10.0892 27.1895 9.87776 26.6594 9.71492C26.57 9.69493 26.299 9.61779 25.9982 9.61779C25.2775 9.61779 24.947 10.0206 24.947 10.3377C24.947 10.5205 25.0482 10.6462 25.0959 10.6919C25.3371 10.9405 25.7272 10.9319 26.3854 11.029C26.7845 11.0862 27.1746 11.1633 27.5677 11.249C27.8179 11.2976 28.7292 11.469 29.0895 12.2946C29.1401 12.4203 29.2295 12.6774 29.2295 13.023C29.2384 13.2202 29.2205 13.623 28.9585 14.0829Z" fill="white"/>
<path d="M30.2808 15.2259V8.44971H35.5044V9.75524H32.0408V10.9922H35.2721V12.2778H32.0408V13.889H35.823V15.2231H30.2808V15.2259Z" fill="white"/>
<path d="M41.0288 15.2259L39.6172 12.8062H38.5153V15.2259H36.7344V8.44971H39.918C40.1175 8.44971 40.317 8.44971 40.5195 8.45828C40.8412 8.47827 41.9609 8.54398 42.5119 9.51527C42.6131 9.69811 42.7918 10.0923 42.7918 10.6465C42.7918 11.4036 42.4821 11.8092 42.2409 12.0292C42.1396 12.1263 42.0205 12.212 41.9103 12.2778C41.7793 12.3463 41.6304 12.412 41.3385 12.5177L42.9705 15.2259H41.0288V15.2259ZM40.0073 9.70668H38.5063V11.5493H39.9686C40.0401 11.5493 40.2396 11.5493 40.4391 11.4807C41.0109 11.2979 41.0288 10.7808 41.0288 10.6066C41.0288 9.72667 40.317 9.70668 40.0073 9.70668Z" fill="white"/>
<path d="M47.3631 15.2259H45.5613L43.1401 8.44971H45.0223L46.4845 13.269L47.9349 8.44971H49.817L47.3631 15.2259Z" fill="white"/>
<path d="M50.4961 15.2259V8.44971H52.2561V15.2259H50.4961V15.2259Z" fill="white"/>
<path d="M56.6487 9.78381V15.2259H54.8678V9.78381H53.0273V8.44971H58.4802V9.78381H56.6487Z" fill="white"/>
<path d="M63.5459 15.2259L62.1343 12.8062H61.0324V15.2259H59.2515V8.44971H62.435C62.6346 8.44971 62.8341 8.44971 63.0366 8.45828C63.3583 8.47827 64.478 8.54398 65.029 9.51527C65.1302 9.69811 65.3089 10.0923 65.3089 10.6465C65.3089 11.4036 64.9992 11.8092 64.758 12.0292C64.6567 12.1263 64.5376 12.212 64.4274 12.2778C64.2964 12.3463 64.1475 12.412 63.8556 12.5177L65.4876 15.2259H63.5459V15.2259ZM62.5244 9.70668H61.0234V11.5493H62.4857C62.5572 11.5493 62.7567 11.5493 62.9562 11.4807C63.528 11.2979 63.5459 10.7808 63.5459 10.6066C63.5459 9.72667 62.8341 9.70668 62.5244 9.70668Z" fill="white"/>
<path d="M71.8222 14.7175C71.441 15.0146 70.762 15.4288 69.6005 15.4288C69.1687 15.4288 67.9983 15.3602 67.0989 14.4604C66.1489 13.5005 66.0894 12.215 66.0894 11.8121C66.0894 11.4579 66.14 10.498 66.7594 9.62388C67.1198 9.11538 67.9388 8.24121 69.5827 8.24121C70.9228 8.24121 71.7329 8.81827 72.1051 9.18108C72.7871 9.85242 73.1653 10.958 73.1653 11.8893C73.1623 12.9234 72.6918 14.0376 71.8222 14.7175ZM70.9407 10.2924C70.8513 10.1781 70.6399 9.93812 70.2587 9.78386C69.9579 9.66959 69.6988 9.65816 69.5767 9.65816C69.1866 9.65816 68.9156 9.78386 68.7875 9.84956C68.0757 10.2324 67.8256 11.0694 67.8256 11.7893C67.8256 12.712 68.1264 13.2091 68.4153 13.5091C68.725 13.8262 69.1449 13.9976 69.6065 13.9976C69.8358 13.9976 70.3868 13.9404 70.8275 13.4891C71.2266 13.0748 71.3665 12.5378 71.3874 12.0007C71.4202 11.1465 71.1521 10.5695 70.9407 10.2924Z" fill="white"/>
<path d="M78.4662 15.2259L75.9051 11.0322L75.9647 15.2259H74.2642V8.44971H75.9944L78.5764 12.7034L78.505 8.44971H80.1965V15.2259H78.4662V15.2259Z" fill="white"/>
<path d="M81.5576 15.2259V8.44971H83.3176V15.2259H81.5576V15.2259Z" fill="white"/>
<path d="M90.3847 14.3146C90.0631 14.6603 89.1845 15.4287 87.8027 15.4287C87.5525 15.4287 86.9718 15.4002 86.3613 15.1402C84.5 14.3346 84.4106 12.3663 84.4106 11.8292C84.4106 11.415 84.4613 10.3523 85.2713 9.40955C85.593 9.02674 86.3911 8.23828 87.8325 8.23828C88.7825 8.23828 89.7027 8.61252 90.3252 9.29528C90.5843 9.58381 90.7451 9.88091 90.8165 9.99518L89.4258 10.6579C89.3245 10.4665 89.256 10.3608 89.1965 10.2837C89.0654 10.1009 88.6366 9.62952 87.9159 9.62952C87.7163 9.62952 87.2458 9.66666 86.8438 10.0323C86.5549 10.2923 86.1737 10.8579 86.1737 11.7892C86.1737 11.8749 86.1737 12.0378 86.2035 12.2492C86.3226 13.1805 86.7425 13.6033 87.1356 13.8147C87.2667 13.8918 87.5347 14.0061 87.9159 14.0061C88.9076 14.0061 89.2858 13.2662 89.4466 13.0091L90.8463 13.6918C90.6349 13.9975 90.486 14.2003 90.3847 14.3146Z" fill="white"/>
</svg>
